<?xml version="1.0" encoding="utf-8"?>
<!-- Generator: Adobe Illustrator 24.3.0, SVG Export Plug-In . SVG Version: 6.00 Build 0)  -->
<svg version="1.1" id="Layer_1" xmlns="http://www.w3.org/2000/svg" xmlns:xlink="http://www.w3.org/1999/xlink" x="0px" y="0px"
	 viewBox="0 0 28.3 28.3" style="enable-background:new 0 0 28.3 28.3;" xml:space="preserve">
<style type="text/css">
	.st0{fill:#E4191E;}
	.st1{fill:#FFFFFF;}
</style>
<g id="XMLID_1_">
	<path id="XMLID_3_" class="st0" d="M15.6,25.4h-2c-5.7,0-10.3-4.6-10.3-10.3v-2c0-5.7,4.6-10.3,10.3-10.3h2
		C21.3,2.7,26,7.4,26,13.1v2C26,20.8,21.3,25.4,15.6,25.4z"/>
	<path id="XMLID_2_" class="st1" d="M12.9,20.9h2.8V14h1.9l0.2-2.3h-2.1c0,0,0-0.9,0-1.3c0-0.5,0.1-0.8,0.6-0.8c0.4,0,1.5,0,1.5,0
		V7.2c0,0-1.6,0-1.9,0c-2.1,0-3,0.9-3,2.6c0,1.5,0,1.8,0,1.8h-1.4V14h1.4V20.9z"/>
</g>
</svg>
