<?xml version="1.0" encoding="utf-8"?>
<!-- Generator: Adobe Illustrator 24.3.0, SVG Export Plug-In . SVG Version: 6.00 Build 0)  -->
<svg version="1.1" id="Layer_1" xmlns="http://www.w3.org/2000/svg" xmlns:xlink="http://www.w3.org/1999/xlink" x="0px" y="0px"
	 viewBox="0 0 28.3 28.3" style="enable-background:new 0 0 28.3 28.3;" xml:space="preserve">
<style type="text/css">
	.st0{fill:#E4191E;}
	.st1{fill:#FFFFFF;}
</style>
<g id="XMLID_103_">
	<path id="XMLID_124_" class="st0" d="M14.6,25.4L14.6,25.4c-6.3,0-11.3-5.1-11.3-11.3v0c0-6.3,5.1-11.3,11.3-11.3l0,0
		C20.9,2.7,26,7.8,26,14.1v0C26,20.3,20.9,25.4,14.6,25.4z"/>
	<g id="XMLID_104_">
		<path id="XMLID_117_" class="st1" d="M14.6,9c1.7,0,1.9,0,2.5,0c0.6,0,0.9,0.1,1.2,0.2c0.3,0.1,0.5,0.2,0.7,0.5
			c0.2,0.2,0.4,0.4,0.5,0.7c0.1,0.2,0.2,0.5,0.2,1.2c0,0.7,0,0.9,0,2.5s0,1.9,0,2.5c0,0.6-0.1,0.9-0.2,1.2c-0.1,0.3-0.2,0.5-0.5,0.7
			c-0.2,0.2-0.4,0.4-0.7,0.5c-0.2,0.1-0.5,0.2-1.2,0.2c-0.7,0-0.9,0-2.5,0c-1.7,0-1.9,0-2.5,0c-0.6,0-0.9-0.1-1.2-0.2
			c-0.3-0.1-0.5-0.2-0.7-0.5C10,18.2,9.9,18,9.8,17.7c-0.1-0.2-0.2-0.5-0.2-1.2c0-0.7,0-0.9,0-2.5s0-1.9,0-2.5
			c0-0.6,0.1-0.9,0.2-1.2c0.1-0.3,0.2-0.5,0.5-0.7c0.2-0.2,0.4-0.4,0.7-0.5C11.2,9.1,11.5,9,12.1,9C12.8,9,13,9,14.6,9 M14.6,7.9
			c-1.7,0-1.9,0-2.6,0c-0.7,0-1.1,0.1-1.5,0.3c-0.4,0.2-0.8,0.4-1.1,0.7S8.9,9.6,8.7,10c-0.2,0.4-0.3,0.8-0.3,1.5c0,0.7,0,0.9,0,2.6
			c0,1.7,0,1.9,0,2.6c0,0.7,0.1,1.1,0.3,1.5c0.2,0.4,0.4,0.8,0.7,1.1s0.7,0.6,1.1,0.7c0.4,0.2,0.8,0.3,1.5,0.3c0.7,0,0.9,0,2.6,0
			c1.7,0,1.9,0,2.6,0c0.7,0,1.1-0.1,1.5-0.3c0.4-0.2,0.8-0.4,1.1-0.7s0.6-0.7,0.7-1.1c0.2-0.4,0.3-0.8,0.3-1.5c0-0.7,0-0.9,0-2.6
			c0-1.7,0-1.9,0-2.6c0-0.7-0.1-1.1-0.3-1.5c-0.2-0.4-0.4-0.8-0.7-1.1s-0.7-0.6-1.1-0.7c-0.4-0.2-0.8-0.3-1.5-0.3
			C16.5,7.9,16.3,7.9,14.6,7.9"/>
		<path id="XMLID_113_" class="st1" d="M14.6,10.9c-1.8,0-3.2,1.4-3.2,3.2c0,1.8,1.4,3.2,3.2,3.2c1.8,0,3.2-1.4,3.2-3.2
			C17.8,12.3,16.4,10.9,14.6,10.9 M14.6,16.2c-1.1,0-2.1-0.9-2.1-2.1c0-1.1,0.9-2.1,2.1-2.1s2.1,0.9,2.1,2.1
			C16.7,15.2,15.8,16.2,14.6,16.2"/>
		<path id="XMLID_111_" class="st1" d="M18.7,10.8c0,0.4-0.3,0.7-0.7,0.7c-0.4,0-0.7-0.3-0.7-0.7c0-0.4,0.3-0.7,0.7-0.7
			C18.4,10,18.7,10.3,18.7,10.8"/>
	</g>
</g>
</svg>
