<?xml version="1.0" encoding="utf-8"?>
<!-- Generator: Adobe Illustrator 24.3.0, SVG Export Plug-In . SVG Version: 6.00 Build 0)  -->
<svg version="1.1" id="Layer_1" xmlns="http://www.w3.org/2000/svg" xmlns:xlink="http://www.w3.org/1999/xlink" x="0px" y="0px"
	 viewBox="0 0 28.3 28.3" style="enable-background:new 0 0 28.3 28.3;" xml:space="preserve">
<style type="text/css">
	.st0{fill:#E4191E;}
	.st1{fill:#FFFFFF;}
</style>
<g id="XMLID_6_">
	<path id="XMLID_81_" class="st0" d="M14.6,25.4L14.6,25.4c-6.3,0-11.3-5.1-11.3-11.3v0c0-6.3,5.1-11.3,11.3-11.3l0,0
		C20.9,2.7,26,7.8,26,14.1v0C26,20.3,20.9,25.4,14.6,25.4z"/>
	<g id="XMLID_7_">
		<g id="XMLID_9_">
			<rect id="XMLID_74_" x="9.5" y="11.6" class="st1" width="2.3" height="7.6"/>
			<path id="XMLID_70_" class="st1" d="M10.6,10.6c0.8,0,1.4-0.6,1.4-1.4s-0.6-1.4-1.4-1.4c-0.8,0-1.4,0.6-1.4,1.4
				S9.9,10.6,10.6,10.6z"/>
		</g>
		<path id="XMLID_8_" class="st1" d="M15.6,15.2c0-1.1,0.5-1.7,1.4-1.7c0.9,0,1.3,0.6,1.3,1.7c0,1.1,0,4,0,4h2.3c0,0,0-2.8,0-4.8
			c0-2-1.2-3-2.8-3c-1.6,0-2.3,1.3-2.3,1.3v-1h-2.3v7.6h2.3C15.6,19.1,15.6,16.3,15.6,15.2z"/>
	</g>
</g>
</svg>
