<?xml version="1.0" encoding="utf-8"?>
<!-- Generator: Adobe Illustrator 24.3.0, SVG Export Plug-In . SVG Version: 6.00 Build 0)  -->
<svg version="1.1" id="Vrstva_1" xmlns="http://www.w3.org/2000/svg" xmlns:xlink="http://www.w3.org/1999/xlink" x="0px" y="0px"
	 viewBox="0 0 197.1 153.1" style="enable-background:new 0 0 197.1 153.1;" xml:space="preserve">
<style type="text/css">
	.st0{fill-rule:evenodd;clip-rule:evenodd;fill:#DC2F34;}
	.st1{fill:#DC2F34;}
</style>
<path class="st0" d="M59.3,18.1c17.2,0,31.9,6.9,38.5,12c1.2,0.9,1.9,0.8,2.8,0.2c4.5-3,17.8-12.1,36.3-12.1
	c22.3,0,44.8,11.3,44.8,35.8c0,15-10.2,30.7-27.8,41.4c-4.4,2.7-9.6,5-15.2,7c-3.2,1.1-4.6-0.2-1.2-2.7c8.2-6.1,29.3-22.2,29.3-42.4
	c0-13.7-12.7-27.4-34.6-27.4c-16.7,0-29,9.4-31.3,10.9c-1.2,0.8-2,0.7-3-0.2c-6-5.4-18.3-11.2-32.6-11.2c-17.4,0-33.1,9.6-33.1,26.6
	c0,31,53.8,43.8,66.9,43.8c3.2,0,32.1-10,32.1-34.3c0-8.6-5.3-14.2-12.3-14.2c-9.2,0-14.5,7.7-18,12c-0.8,1-2.1,1.4-2.9,0
	c-3.2-5.8-9.4-12.2-17.9-12.2c-7.5,0-12,5.5-12,11.4c0,14.1,19.6,22.9,28.8,26.1c1.8,0.6,1.8,2.5-0.7,2.3C83.1,89.9,50.7,80,50.7,59
	c0-8.7,7.5-18.3,22.4-18.3c10,0,19.6,5.5,25.2,12.3c0.6,0.7,1.5,0.6,2,0.1c0.5-0.5,12.2-11.9,26.1-11.9c10,0,20.8,6.8,20.8,21.2
	c0,14.8-13,29.7-24,36.5c-11.2,7-22,10.1-24.6,9.9c-43.2-3.5-81.4-28.5-81.4-58C17.3,36.2,28.3,18.1,59.3,18.1L59.3,18.1z"/>
<path class="st1" d="M42.3,136.9l10.1-19.4h0.1l10.4,19.4l-4,1.8l-1.9-3.8h-9.1l-1.7,3.8L42.3,136.9z M49.7,131.2h5.6l-2.9-5.7
	L49.7,131.2z"/>
<path class="st1" d="M136.2,136.9l10.1-19.4h0.1l10.4,19.4l-4,1.8l-1.9-3.8h-9.1l-1.7,3.8L136.2,136.9z M143.7,131.2h5.6l-2.9-5.7
	L143.7,131.2z"/>
<path class="st1" d="M67.1,138v-19.8h4.3V134h6.9v4H67.1z"/>
<path class="st1" d="M99.8,135.3c-1.3,1.5-5.5,2.9-8.4,2.9c-5.7,0-9.9-4.5-9.9-10.2c0-5.9,4.4-10.2,9.8-10.2c3.4,0,6.3,1.6,7.4,3.3
	l-2.9,2.9c-0.8-0.8-2.2-1.9-4.6-1.9c-2.9,0-5.2,2.5-5.2,6.2c0,3.9,2.8,5.9,5.8,5.9c1.4,0,2.8-0.4,3.9-1.1V130h-3.1l0-3.6h7.3V135.3z
	"/>
<path class="st1" d="M117.2,118.2h6.6c5.4,0,10.1,4.3,10.1,9.8c0,6.6-5.7,10-10.9,10h-5.8V118.2z M123.6,133.9c3.9,0,5.9-2.9,5.9-6
	c0-3.4-2.6-5.8-6.1-5.8h-2v11.8H123.6z"/>
<rect x="106.2" y="118.1" class="st1" width="4.3" height="19.9"/>
</svg>
