<?xml version="1.0" encoding="utf-8"?>
<!-- Generator: Adobe Illustrator 24.3.0, SVG Export Plug-In . SVG Version: 6.00 Build 0)  -->
<svg version="1.1" id="Layer_1" xmlns="http://www.w3.org/2000/svg" xmlns:xlink="http://www.w3.org/1999/xlink" x="0px" y="0px"
	 viewBox="0 0 212.3 67.9" style="enable-background:new 0 0 212.3 67.9;" xml:space="preserve">
<style type="text/css">
	.st0{fill-rule:evenodd;clip-rule:evenodd;fill:#E30613;}
</style>
<g>
	<path class="st0" d="M25.8,41.9c3,4.9,8.5,8.2,14.6,8.2c9,0,14-7.8,14-7.8l0,0l0.6,2.1l0,0c-4.2,5.4-11.7,8.7-20,8.7
		c-9.6,0-17.9-4.6-21.7-11.2c-1.4-2.5-2.2-5.3-2.2-8.2c0-10.7,10.7-19.4,24-19.4c9.4,0,16.9,4,20.9,9.8l0,0l-15.7,9.4l9-13.8l0,0
		c-2.6-1.6-5.7-3.1-9-3.1c-9.2,0-16.8,7.7-16.8,16.9C23.4,36.5,24.2,39.4,25.8,41.9L25.8,41.9L25.8,41.9L25.8,41.9L25.8,41.9z"/>
	<path class="st0" d="M67.8,41.9c0,0.3-0.1,0.6-0.1,0.9c0,3.5,2.8,6.3,6.3,6.3c3.5,0,6.3-2.8,6.3-6.3c0-0.3,0-0.6-0.1-1
		c-0.5-3-3.1-5.4-6.2-5.4C70.9,36.5,68.3,38.9,67.8,41.9L67.8,41.9L67.8,41.9L67.8,41.9L67.8,41.9z M91.3,41.9l3.1,10.6h-11
		l-2.2-7.2l0,0c-1.5,4.2-6.3,7.2-12.2,7.2c-7,0-12.6-4.4-12.6-9.8c0-0.3,0-0.5,0-0.8c0.5-5.1,5.9-9.1,12.6-9.1
		c3.8,0,7.1,1.3,9.5,3.3l0,0l-3-10H62.9l0,0c0,0,2.1-1.3,11.4-4.7c9.3-3.4,12.3,4.7,12.3,4.7l0,0L91.3,41.9L91.3,41.9L91.3,41.9
		L91.3,41.9z"/>
	<path class="st0" d="M126.5,41.9v10.6h-11.3V41.9V29.2l0,0c0-1.7-1.4-3.1-3.1-3.1c-1.3,0-2.4,0.8-2.9,2l0,0v13.8v10.6H98V41.9V26.1
		h-6.5l0,0c0,0,9-5.5,12.2-5.5c3,0,5.2,2.3,5.4,5.2c4.4-2.4,8.7-5.2,11.7-5.2c3.1,0,5.6,2.5,5.7,5.5l0,0V41.9L126.5,41.9L126.5,41.9
		L126.5,41.9z"/>
	<path class="st0" d="M144,41.9l1.6,5.2l0,0c0,2.2,1.9,4,4.1,4c2.3,0,4.2-1.9,4.2-4.2c0-0.2,0-0.3,0-0.5l0,0l-1.3-4.6l-4.7-16.1l0,0
		c-0.2-2.1-2-3.7-4.1-3.7c-2.1,0-4.2,2-4.4,4l0,0L144,41.9L144,41.9L144,41.9L144,41.9z M162,41.9c-2.1,6.5-8.3,11.2-15.5,11.2
		c-7.2,0-13.4-4.7-15.5-11.2c-0.5-1.6-0.8-3.3-0.8-5.1c0-9,7.3-16.3,16.3-16.3c9,0,16.3,7.3,16.3,16.3
		C162.8,38.6,162.5,40.3,162,41.9L162,41.9L162,41.9L162,41.9L162,41.9z"/>
	<path class="st0" d="M180.8,41.9v10.6h-11.1V41.9V26.1h-6.2l0,0c0,0,8.8-5.5,11.9-5.5c3,0,5.2,2.3,5.4,5.2
		c4.4-2.4,8.7-5.2,11.7-5.2c3.1,0,5.6,2.5,5.7,5.5l0,0v15.7v10.6h-11.3V41.9V29.2l0,0c0-1.7-1.4-3.1-3.1-3.1c-1.3,0-2.4,0.8-2.9,2
		l0,0V41.9L180.8,41.9L180.8,41.9L180.8,41.9z"/>
</g>
</svg>
