<?xml version="1.0" encoding="utf-8"?>
<!-- Generator: Adobe Illustrator 24.3.0, SVG Export Plug-In . SVG Version: 6.00 Build 0)  -->
<svg version="1.1" id="Layer_1" xmlns="http://www.w3.org/2000/svg" xmlns:xlink="http://www.w3.org/1999/xlink" x="0px" y="0px"
	 viewBox="0 0 328.5 177.7" style="enable-background:new 0 0 328.5 177.7;" xml:space="preserve">
<style type="text/css">
	.st0{fill:#DE0B1C;}
</style>
<path class="st0" d="M224.3,47.1c0,0-5.3,2.1-11.6,9c-6.2,6.9-9.8,14.5-7.1,16.6c1,0.8,3.4,0.9,7.7-3c3.4-3,6.8-7,9.1-12.6
	C225.1,50.2,224.3,47.1,224.3,47.1 M258.3,59.4c-6.9-3.5-11.9-7.9-17.2-10.6c-5-2.6-8.2-3.6-12.3-3.1c-0.7,0.1-1.7,0.4-1.7,0.4
	s2.1,7.1-6.2,19.1c-8.4,12.1-16,12.1-18.2,8.7c-2.3-3.5,0.6-10.7,5.6-17.1c5.1-6.7,14.1-12.2,14.1-12.2s-2.9-1.8-9.9,2.3
	c-6.9,3.9-18.7,13.1-29.7,28.8c-11,15.6-13.1,24.2-14.7,31c-1.6,6.8-0.1,14,7.4,14c7.5,0,16.2-11.4,18.7-15.4
	c4.6-7.4,7.5-18.8,1.3-17.2c-3.1,0.8-5.6,4.2-7.1,7.5c-1.6,3.4-2.3,6.6-2.3,6.6s-2.6,0.9-6.1,3.5c-3.5,2.6-5.8,5.1-5.8,5.1
	s0-5.4,4.3-14.2c4.3-8.8,12.2-12.8,16.7-13.1c4.1-0.3,9.3,3.1,4.9,15.8c-4.4,12.7-17.6,28-31.4,28.2c-12.7,0.2-21.1-16.1-3.4-44.5
	c19.6-31.4,42.6-41,50.1-42.1c7.5-1.1,9.9,2.2,9.9,2.2s6.3-2.9,14.2-2.4c9.1,0.6,16.2,7.1,25.5,11.6
	C262.7,54.7,260.4,57.1,258.3,59.4 M299.3,48.8c-6.3,4.1-15.1,7.7-23.5,6.9c-2.1,2.2-4.4,4.7-6.7,7.5c14.6,2.9,27.4-6.2,34.2-13.9
	c4.2-4.8,6.3-9.1,6.3-9.1S305.5,44.7,299.3,48.8 M279.9,89.9c0.2-0.3,0.3-0.6,0.3-0.6s-0.2-1.2-1.3-1.3c-1.4-0.1-3.3,0.2-8.2,5.7
	c-5,5.5-8,10.2-10.6,15c-2.8,5.2-4,9.1-2.4,10.1c0.5,0.3,1.2,0.3,1.7,0.2c1.1-0.3,2.4-1.3,4.3-3.5c0.9-1,1.9-2.5,3.1-4.1
	C270,106.8,278.2,92.7,279.9,89.9 M228.2,95.9c0.8-2.2,1.9-6.4-0.3-8.1c-2.4-1.8-8.4,2.4-8.4,6.7c0,4.4,4.2,6.4,5.3,6.6
	c0.6,0.2,0.8,0.1,1.1-0.3C226.1,100.4,227.4,98.1,228.2,95.9 M223.7,103.9c-0.2-0.1-2.1-1-4.1-2.6c-2-1.7-3-3.6-3.1-3.8
	c-0.1-0.1-0.2,0-0.3,0.1c-0.1,0.1-0.5,0.4-3.7,5.2c-3.2,4.7-8.1,14.4-3.7,16.1c2.8,1.1,7.6-3.9,10.2-7.3c2.4-3.1,4.7-7,4.8-7.3
	C224,104,223.9,103.9,223.7,103.9 M274.3,115.1c-1.2,1.9-2.6,5.6,1.4,3.3c4.9-2.8,11.8-13.3,11.8-13.3h3.1c0,0-4.1,6.5-9.5,12.5
	c-4.9,5.5-10.9,10.4-15.2,10c-5-0.6-3.4-7.1-3.4-7.1s-7.1,7.5-12,7c-6.6-0.7-4.6-8.9-4.6-8.9s-7.5,9.2-12.6,8.9
	c-8-0.5-6-10.2-3.8-17c1.2-3.7,2.3-6.5,2.3-6.5s-0.8,0.2-2.5,0.5c-0.9,0.1-2.5,0.2-2.5,0.2s-3.3,5.9-6,9.4
	c-2.7,3.5-14,15.7-20.6,13.3c-6.2-2.3-4.1-11.7-0.5-19.2c5.2-10.9,19.9-26.6,28.4-24.6c8.8,2.1,0.2,18.2,0.2,18.2s0,0.1,0.1,0.1
	c0.2,0.1,0.6,0.1,1.7-0.1c1.7-0.3,3.2-1,3.2-1s8.8-18.5,18.6-30.6c9.8-12.1,29.2-33,36.9-28c1.9,1.2,1,5.5-1.5,10.7
	c-1.1,0.3-2.3,0.7-3.5,0.9c1.7-3.1,2.8-5.6,3.1-7.4c1.1-6.3-13.5,6.9-23.9,21.2c-10.4,14.2-16.7,27.1-16.7,27.1s2.1-1.2,5.4-3.8
	c3.4-2.8,8.1-7.1,13.3-12.4c3.4-3.6,7.5-8,11.3-13c1.1-0.1,2.2-0.2,3.3-0.3c-4.2,5.7-8.7,10.9-12.4,14.7c-4.1,4.2-8.7,8.7-12.6,12.1
	c-6.2,5.2-11,8.2-11,8.2s-9.2,18.4-4.2,19.6c2.9,0.7,8.7-8.2,8.7-8.2s7.5-11.5,12.1-16.7c6.2-7,11.5-11.1,16.8-11.2
	c3.1,0,4.9,3.3,4.9,3.3l1.5-2.3h9C292.4,84.4,275.6,112.9,274.3,115.1 M299.3,48.8c-6.3,4.1-15.1,7.7-23.5,6.9
	c-2.1,2.2-4.4,4.7-6.7,7.5c14.6,2.9,27.4-6.2,34.2-13.9c4.2-4.8,6.3-9.1,6.3-9.1S305.5,44.7,299.3,48.8 M283.8,122.2h1.4
	c0.5,0,0.9,0,1.1,0.1c0.4,0.2,0.6,0.5,0.6,1c0,0.3-0.1,0.6-0.4,0.8c-0.1,0.1-0.3,0.2-0.6,0.2c0.3,0,0.5,0.2,0.7,0.4
	c0.1,0.2,0.2,0.4,0.2,0.6v0.3c0,0.1,0,0.2,0,0.3c0,0.1,0,0.2,0,0.2l0,0h-0.7v0c0,0,0,0,0,0l0-0.1v-0.3c0-0.4-0.1-0.7-0.4-0.9
	c-0.1-0.1-0.4-0.1-0.8-0.1h-0.6v1.6h-0.7V122.2z M286.2,123.4c0-0.3-0.1-0.5-0.3-0.6c-0.1-0.1-0.5-0.2-0.8-0.2h-0.6v1.4h0.6
	c0.3,0,0.5,0,0.7-0.1C286,123.9,286.2,123.7,286.2,123.4 M288.8,124.1c0,1-0.3,1.9-1,2.6c-0.7,0.7-1.6,1.1-2.5,1.1
	c-1,0-1.8-0.4-2.5-1.1c-0.7-0.7-1.1-1.5-1.1-2.6c0-1,0.4-1.8,1.1-2.5c0.7-0.7,1.5-1.1,2.5-1.1c1,0,1.9,0.4,2.5,1.1
	C288.5,122.3,288.8,123.2,288.8,124.1 M285.2,121c-0.8,0-1.6,0.3-2.2,0.9c-0.6,0.6-0.9,1.3-0.9,2.2c0,0.9,0.3,1.6,0.9,2.2
	c0.6,0.6,1.3,0.9,2.2,0.9c0.9,0,1.6-0.3,2.2-0.9c0.6-0.6,0.9-1.4,0.9-2.2c0-0.9-0.3-1.6-0.9-2.2C286.8,121.3,286.1,121,285.2,121
	 M173.1,62.8h-8.5l-4.8,7.8h8.5L173.1,62.8z M132.6,89.9c3.6-5,13.7-22.4,13.7-22.4s-0.2-1.2-1.3-1.3c-1.4-0.1-3.7,0.4-8.3,6.2
	c-4.6,5.8-8.2,10.4-10.8,15.1c-2.8,5.2-4.1,8.9-2.5,9.9c0.4,0.3,1.1,0.3,1.7,0.2c1.1-0.3,2.5-1.3,4.4-3.6
	C130.4,92.9,131.4,91.5,132.6,89.9 M86.8,66.3c-2.4-1.8-8.4,2.4-8.4,6.7c0,4.4,5.4,5.6,6.1,5.6c0,0,0.6,0.2,0.9-0.4
	c0.2-0.3,0.9-1.7,1.7-3.9C87.9,72.2,89,67.9,86.8,66.3 M83.2,81.3c-0.2-0.1-2.4-0.7-4.6-2.1c-2.2-1.4-3.2-3.5-3.3-3.7
	c-0.1-0.1-0.2,0-0.3,0.1c-0.1,0.1-0.6,0.7-3.8,5.4c-3.2,4.7-8,14.4-3.5,16c2.8,1.1,7.6-4,10.2-7.3c2.4-3.1,5.3-7.8,5.4-8.1
	C83.5,81.5,83.4,81.4,83.2,81.3 M153,84.2h3.1c0,0-15.7,22.7-24.6,21.7c-4.9-0.6-3.5-6.7-3.5-6.7s-7,8.1-13.3,6.5
	c-5.8-1.5-2.1-11.1-2.1-11.1c-0.7,0.3-13.2,14.4-22,11c-9.2-3.5-4.4-15.4-2.7-18.9c1.5-3,3.1-5.9,3.1-5.9s-1.4,0.4-2.3,0.6
	c-0.9,0.2-2.2,0.5-2.2,0.5s-4.4,7.1-7,10.6c-2.7,3.5-14,15.7-20.6,13.3c-6.7-2.4-5-11.7-1.3-19.2c6.1-12,20.5-26.8,29.2-24.6
	c8.8,2.2,1.5,16.5,1.5,16.5s1.7,0.2,5.9-2.6c6-4.1,14-15.2,22.6-13.9c4,0.6,7.8,4.8,2.7,12.6c-1.7,2.5-4.4,4.8-6.5,2.6
	c-1.3-1.4-0.2-3.9,1.2-5.6c1.9-2.5,4.6-2.1,4.6-2.1s1.4-3.3-2.2-3.2c-2.9,0.1-10.3,6.9-14.5,13.8c-3.8,6.3-9.6,17.1-3.8,19.5
	c5.4,2.2,15.5-9.9,20.2-16.3c4.7-6.3,15.4-20.7,24.4-21.3c3.1-0.2,4.9,2.6,4.9,2.6l1-1.7h9c0,0-17,28.3-18.3,30.5
	c-1.1,1.7-2.4,5.5,1.4,3.3C145.1,94.5,153,84.2,153,84.2 M148.1,129.6c-6.8-4.8-15.1-6.9-22.7-6.6c-7.6,0.3-11,6-11,6
	c-3.4-6-10.2-9.7-20.7-9.6c-17,0.2-33.8,8-47.1,8c-12.8,0-22.1-8-21.8-22.3c0.5-25,21.7-47.6,37.5-57.8c9.1-5.8,16.7-7.6,21.7-7
	c3.6,0.4,8,4.6,5.2,10.8c-4,9.1-9.6,8.3-9.4,4c0.1-2.8,2-4.6,3.4-5.6c0.9-0.6,2.5-0.8,3.3-0.8c0.8-0.7,1.4-5.6-5.1-4
	c-6.5,1.6-14.3,8-21.8,16.3c-7.5,8.3-19.1,23.9-22,40.3c-1.3,7.6-0.4,21.5,17.6,21.3c15.3-0.1,37.8-10.2,58.5-10
	c8,0.1,15,2.2,20.5,5.6C139.5,121.5,145.9,126.3,148.1,129.6"/>
</svg>
