<?xml version="1.0" encoding="utf-8"?>
<!-- Generator: Adobe Illustrator 24.3.0, SVG Export Plug-In . SVG Version: 6.00 Build 0)  -->
<svg version="1.1" id="Layer_1" xmlns="http://www.w3.org/2000/svg" xmlns:xlink="http://www.w3.org/1999/xlink" x="0px" y="0px"
	 viewBox="0 0 462.5 317.4" style="enable-background:new 0 0 462.5 317.4;" xml:space="preserve">
<style type="text/css">
	.Arched_x0020_Green{fill:url(#SVGID_1_);stroke:#FFFFFF;stroke-width:0.25;stroke-miterlimit:1;}
	.st0{fill:#003A78;}
	.st1{fill:url(#SVGID_2_);}
</style>
<linearGradient id="SVGID_1_" gradientUnits="userSpaceOnUse" x1="0" y1="612" x2="0.7071" y2="611.2929">
	<stop  offset="0" style="stop-color:#1DA238"/>
	<stop  offset="0.9831" style="stop-color:#24391D"/>
</linearGradient>
<g>
	<g>
		<g>
			<path class="st0" d="M260.2,107.3c-0.2-15.7-8.5-29.5-29.6-29.5c-32.9,0.1-56.4,32.5-56.3,60c0.1,17.4,9.9,29.8,29.6,29.8
				C235.1,167.6,260.2,137.6,260.2,107.3z M205.2,163.2c-9.3,0-14-7.7-13.9-22.1c0.1-29.9,21.6-58.7,39.2-58.7
				c9.3,0,13.4,8.7,13.4,21.3C244.1,130.2,225,163.2,205.2,163.2z"/>
			<path class="st0" d="M403.6,89.4c-2-6.8-10.6-13.1-24.9-11.7c-34.6,3.4-56.5,39.1-50.3,67.5c2,9.3,8.6,22.6,29.9,22.6
				c21.3,0,32.1-15.6,32.7-16.6c4.4-6.5,3.3-10.2-1.6-4.4c-4,4.8-15.9,17.1-28.8,15.5c-12.6-1.5-17.3-16.6-15.6-32.1
				C394.5,121.8,407.5,102.5,403.6,89.4z M361.6,90.9c4.4-4.9,10.5-8.5,15.2-9.2c18.1-2.5,18.3,35.5-31.3,44.1
				C348.4,107.8,355.9,97.1,361.6,90.9z"/>
			<path class="st0" d="M90.8,29.5c-34.7,0.1-46.3,20.4-46.4,25.7c0,1.6,0,2.7,0.9,1.8c1.2-1.1,3.3-5.3,7.6-9
				c10.1-8.7,35.1-18.2,63.5-8.1c28.4,10.1,43.6,39.5,33.1,73.3c-10.7,34.5-32.1,43.5-52.7,47.2c-20.5,3.7-43.7,1.8-43.7,1.8
				c0,0-0.1-0.1,0-0.1c4.7-5,14.3-26.3,25.1-57.4c11.4-32.9,21.3-45.3,31.4-53.9c3.4-2.9-6-1.2-9,0c-2.6,1-24.7,8.3-37.9,42.9
				c-13.3,35-22.1,56.7-26.4,64.4c-4.3,7.6-6.1,9.5,0.2,9.5c6.3,0,0,0,0,0c32.4,0,47.7,0.2,60.1-0.5c24.1-1.5,69.6-10.8,74.4-61.4
				C175.5,56.6,126.1,29.4,90.8,29.5z"/>
			<path class="st0" d="M285.1,150.1c21.1-17.4,33-42.1,34.9-54.4c2-12.3-0.2-16.4,1.2-17c1.4-0.6,8.5,5.4,8.1,14.7
				c-0.2,4.1-2.4,18.8-21.6,42.3c-19.4,23.9-36.3,33.6-38.5,31.9c-2.2-1.7,1.6-23.1,0.9-48.8c-0.8-25.8-5.9-31.5-7.5-37.5
				c-0.4-1.6,1-1.3,1-1.3l0,0c0.4,0.1,14.8,2.7,19.9,16.7C289,111.8,286.2,140.3,285.1,150.1C285.1,150.1,285.1,150.1,285.1,150.1z"
				/>
		</g>
	</g>
	<linearGradient id="SVGID_2_" gradientUnits="userSpaceOnUse" x1="133.5745" y1="253.601" x2="290.6793" y2="253.601">
		<stop  offset="0" style="stop-color:#C4932C"/>
		<stop  offset="0.2699" style="stop-color:#E7CC8A"/>
		<stop  offset="0.4908" style="stop-color:#FFECBB"/>
		<stop  offset="0.7485" style="stop-color:#E7CC8A"/>
		<stop  offset="1" style="stop-color:#C4932C"/>
	</linearGradient>
	<path class="st1" d="M290.7,233c0,0.6-0.8,0.7-1.6,0.9c-5,1.5-8.4,4.4-15.5,17.2c-7.1,12.8-31.7,78.4-138.7,7.7
		c-0.2-0.1-1.3-0.8-1.4-1.2c-0.1-0.2,0-0.4,0.2-0.4c0.2-0.1,0.5,0,0.7,0c0.9,0.2,2.8,0.6,5.3,1.2c10.7,2.4,37.2,5.2,55.2,2.6
		c4.6-0.7,8.5-1.4,12.8-3.1c2.9-1.1,2.8-2.2,2.6-2.6c-0.2-0.4-0.5-0.8-4.2,0c-4,0.8-10.1,0.9-18.7-0.3c-16.1-2.3-28.7-9.9-29.9-10.8
		c0,0-2.8-1.6-2.5-2.3c0.1-0.2,0.7-0.1,0.9-0.1l1.1,0.1c17.1,0.5,33.2-6.3,56.9-20.7c12-7.3,24.5-6.2,30.5-0.8
		c0,0,10.7,7.9,0.8,22.6c-2.3,3.5,0.1,4.7,9.7-5.5c9.6-10.3,20.1-16.3,31.5-7.4l3.2,2.2C289.9,232.3,290.6,232.7,290.7,233z"/>
</g>
</svg>
