<?xml version="1.0" encoding="utf-8"?>
<!-- Generator: Adobe Illustrator 24.3.0, SVG Export Plug-In . SVG Version: 6.00 Build 0)  -->
<svg version="1.1" xmlns="http://www.w3.org/2000/svg" xmlns:xlink="http://www.w3.org/1999/xlink" x="0px" y="0px"
	 viewBox="0 0 459 83.7" style="enable-background:new 0 0 459 83.7;" xml:space="preserve">
<style type="text/css">
	.st0{fill:url(#SVGID_1_);}
	.st1{fill:url(#SVGID_2_);}
	.st2{fill:url(#SVGID_3_);}
	.st3{fill:url(#SVGID_4_);}
	.st4{fill:url(#SVGID_5_);}
	.st5{fill:url(#SVGID_6_);}
	.st6{fill:url(#SVGID_7_);}
	.st7{fill:url(#SVGID_8_);}
	.st8{fill:url(#SVGID_9_);}
	.st9{fill:url(#SVGID_10_);}
	.st10{fill:url(#SVGID_11_);}
	.st11{fill:url(#SVGID_12_);}
	.st12{fill:url(#SVGID_13_);}
</style>
<g id="Calque_1">
	<g>
		<linearGradient id="SVGID_1_" gradientUnits="userSpaceOnUse" x1="30.0221" y1="21.949" x2="30.0221" y2="21.984">
			<stop  offset="0" style="stop-color:#EECA87"/>
			<stop  offset="1" style="stop-color:#BA7E16"/>
		</linearGradient>
		<path class="st0" d="M30,22C30,22,30,21.9,30,22"/>
		<linearGradient id="SVGID_2_" gradientUnits="userSpaceOnUse" x1="40.2244" y1="16.5977" x2="40.2244" y2="67.8037">
			<stop  offset="0" style="stop-color:#EECA87"/>
			<stop  offset="1" style="stop-color:#BA7E16"/>
		</linearGradient>
		<path class="st1" d="M30,22c0-2.9-2.4-5.4-5.3-5.4l-9.6,0v11.3h4.6c0.9,0,1.7,0.6,1.7,1.7v9.3c0,1.6-3.7,3.6-3.7,3.6
			s3.7,2.1,3.7,3.7v9.3c0,0.9-0.8,1.7-1.7,1.7h-4.6v10.5l9.6,0c2.9,0,5.4-2.2,5.4-5.1c0,2.7,2.4,5.1,5.3,5.1H47V57.3h-6.5
			c-0.9,0-1.8-0.8-1.8-1.7l0-7.8h3.7v3.6h8.2V33.6h-8.4v3.6h-3.6v-7.7c0-0.9,0.7-1.7,1.6-1.7h12.2c0.9,0,1.7,0.7,1.6,1.7v8.6h11.3
			V16.6l-30,0C32.5,16.6,30,19,30,22"/>
		<g>
			<linearGradient id="SVGID_3_" gradientUnits="userSpaceOnUse" x1="86.2149" y1="21.949" x2="86.2149" y2="21.984">
				<stop  offset="0" style="stop-color:#EECA87"/>
				<stop  offset="1" style="stop-color:#BA7E16"/>
			</linearGradient>
			<path class="st2" d="M86.2,22C86.2,22,86.2,21.9,86.2,22"/>
			<linearGradient id="SVGID_4_" gradientUnits="userSpaceOnUse" x1="96.544" y1="16.5977" x2="96.544" y2="67.8037">
				<stop  offset="0" style="stop-color:#EECA87"/>
				<stop  offset="1" style="stop-color:#BA7E16"/>
			</linearGradient>
			<path class="st3" d="M86.9,22c0-2.9,2.4-5.4,5.4-5.4l30,0v21.6h-11.3v-8.6c0-0.9-0.7-1.7-1.6-1.7H97.1c-0.9,0-1.6,0.8-1.6,1.7
				v7.7H99v-3.6h8.4v17.8h-8.2v-3.6h-3.7l0,7.8c0,0.9,0.9,1.7,1.8,1.7h12c0.9,0,1.7-0.7,1.6-1.7V47h5.9h5.3v20.7H92.1
				c-2.9,0.1-5.3-2.3-5.3-5.1c0,2.9-2.4,5.1-5.4,5.1l-10.6,0V57.3h5.6c0.9,0,1.7-0.8,1.7-1.7v-9.3c0-1.6-3.7-3.7-3.7-3.7
				s3.7-2.1,3.7-3.6v-9.3c0-1.1-0.8-1.7-1.7-1.7h-4.6V16.6l9.6,0c2.9,0,5.3,2.4,5.3,5.4"/>
		</g>
		<linearGradient id="SVGID_5_" gradientUnits="userSpaceOnUse" x1="159.5637" y1="16.6055" x2="159.5637" y2="67.8037">
			<stop  offset="0" style="stop-color:#EECA87"/>
			<stop  offset="1" style="stop-color:#BA7E16"/>
		</linearGradient>
		<path class="st4" d="M186.1,57.3c-1.6,0-2.9-1.3-2.9-2.9l0-5c0-3.4-2.5-6.2-5.7-6.8c4.8-2,8.5-7,8.5-12.6c0-7.4-6-13.5-13.5-13.5
			h-21.8c-2.9,0-5.4,2.4-5.4,5.4h-0.1c0-2.9-2.4-5.4-5.3-5.4l-9.6,0v11.3h4.6c0.9,0,1.7,0.6,1.7,1.7v9.3c0,1.6-3.7,3.6-3.7,3.6
			s3.7,2.1,3.7,3.7v9.3c0,0.9-0.8,1.7-1.7,1.7h-4.6v10.5l9.6,0c2.9,0,5.4-2.2,5.4-5.1c0,2.7,2.4,5.1,5.3,5.1h11V57.3h-5.8
			c-0.9,0-1.8-0.8-1.8-1.7l0-7.7l7,0c2.9,0,5.3,2.4,5.3,5.3l0,5.8c0,4.9,3.9,8.8,8.8,8.8l13.6,0V57.3L186.1,57.3z M163.2,37.4
			l-9.2,0v-7.8c0-0.9,0.7-1.7,1.6-1.7l7.6,0c2.6,0,4.7,1.9,4.7,4.7C167.9,35.2,165.8,37.4,163.2,37.4z"/>
		<linearGradient id="SVGID_6_" gradientUnits="userSpaceOnUse" x1="348.0878" y1="16.5542" x2="348.0878" y2="67.752">
			<stop  offset="0" style="stop-color:#EECA87"/>
			<stop  offset="1" style="stop-color:#BA7E16"/>
		</linearGradient>
		<path class="st5" d="M374.6,57.2c-1.6,0-2.9-1.3-2.9-2.9l0-5c0-3.4-2.5-6.2-5.7-6.8c4.8-2,8.5-7,8.5-12.6c0-7.4-6-13.5-13.5-13.5
			h-21.8c-2.9,0-5.4,2.4-5.4,5.4h-0.1c0-2.9-2.4-5.4-5.3-5.4l-9.6,0v11.3h4.6c0.9,0,1.7,0.6,1.7,1.7v9.3c0,1.6-3.7,3.6-3.7,3.6
			s3.7,2.1,3.7,3.7v9.3c0,0.9-0.8,1.7-1.7,1.7h-4.6v10.5l9.6,0c2.9,0,5.4-2.2,5.4-5.1c0,2.7,2.4,5.1,5.3,5.1h11V57.2h-5.8
			c-0.9,0-1.8-0.8-1.8-1.7l0-7.7l7,0c2.9,0,5.3,2.4,5.3,5.3l0,5.8c0,4.9,3.9,8.8,8.8,8.8l13.6,0V57.2L374.6,57.2z M351.7,37.3
			l-9.2,0v-7.8c0-0.9,0.7-1.7,1.6-1.7l7.6,0c2.6,0,4.7,1.9,4.7,4.7C356.5,35.2,354.3,37.3,351.7,37.3z"/>
		<g>
			<linearGradient id="SVGID_7_" gradientUnits="userSpaceOnUse" x1="411.2944" y1="14.6655" x2="411.2944" y2="69.0664">
				<stop  offset="0" style="stop-color:#EECA87"/>
				<stop  offset="1" style="stop-color:#BA7E16"/>
			</linearGradient>
			<path class="st6" d="M440.2,38.8c0-5.3-1.8-24.1-28.9-24.1c-27,0-28.9,18.5-28.9,23.9l0,0c0,1.6-3.8,3.8-3.8,3.8s3.7,2.1,3.7,3.8
				c0.3,6.4,3.5,22.9,28.8,22.9c25.4,0,28.6-16.5,28.9-22.9l0,0c0-1.6,3.7-3.8,3.7-3.8S440.2,40.3,440.2,38.8z M420.8,47.7
				c-0.3,1.3-0.6,2.6-1,3.7c-1.3,3.4-4.6,6-8.4,6c-4.1,0-7.6-3-8.7-6.7l-0.8-3.2c-0.5-3.1,3.8-5.1,3.8-5.1s-4.3-2.4-3.9-5.2
				c0.2-1.8,0.7-3.6,1.2-5c1.3-3.4,4.5-5.8,8.4-5.8c3.9,0,7.2,2.5,8.5,6c0.5,1.4,0.9,3,1.2,4.7c0.4,2.8-3.9,5.2-3.9,5.2
				S421.4,44.4,420.8,47.7z"/>
			<linearGradient id="SVGID_8_" gradientUnits="userSpaceOnUse" x1="411.2256" y1="69.0664" x2="411.2256" y2="69.0664">
				<stop  offset="0" style="stop-color:#EECA87"/>
				<stop  offset="1" style="stop-color:#BA7E16"/>
			</linearGradient>
			<polygon class="st7" points="411.2,69.1 411.2,69.1 411.2,69.1 			"/>
			<linearGradient id="SVGID_9_" gradientUnits="userSpaceOnUse" x1="411.2856" y1="14.6655" x2="411.2856" y2="14.6655">
				<stop  offset="0" style="stop-color:#EECA87"/>
				<stop  offset="1" style="stop-color:#BA7E16"/>
			</linearGradient>
			<polygon class="st8" points="411.3,14.7 411.3,14.7 411.3,14.7 			"/>
		</g>
		<linearGradient id="SVGID_10_" gradientUnits="userSpaceOnUse" x1="402.2881" y1="47.4941" x2="402.2881" y2="50.6641">
			<stop  offset="0" style="stop-color:#EECA87"/>
			<stop  offset="1" style="stop-color:#BA7E16"/>
		</linearGradient>
		<path class="st9" d="M401.9,47.5c0,0.1,0,0.1,0,0.2c0.2,1,0.5,2.1,0.7,3"/>
		<linearGradient id="SVGID_11_" gradientUnits="userSpaceOnUse" x1="224.3054" y1="16.5542" x2="224.3054" y2="67.752">
			<stop  offset="0" style="stop-color:#EECA87"/>
			<stop  offset="1" style="stop-color:#BA7E16"/>
		</linearGradient>
		<path class="st10" d="M250.8,57.2c-1.6,0-2.9-1.3-2.9-2.9l0-5c0-3.4-2.5-6.2-5.7-6.8c4.8-2,8.5-7,8.5-12.6c0-7.4-6-13.5-13.5-13.5
			h-21.8c-2.9,0-5.4,2.4-5.4,5.4H210c0-2.9-2.4-5.4-5.3-5.4l-9.6,0v11.3h4.6c0.9,0,1.7,0.6,1.7,1.7v9.3c0,1.6-3.7,3.6-3.7,3.6
			s3.7,2.1,3.7,3.7v9.3c0,0.9-0.8,1.7-1.7,1.7h-4.6v10.5l9.6,0c2.9,0,5.4-2.2,5.4-5.1c0,2.7,2.4,5.1,5.3,5.1h11V57.2h-5.8
			c-0.9,0-1.8-0.8-1.8-1.7l0-7.7l7,0c2.9,0,5.3,2.4,5.3,5.3l0,5.8c0,4.9,3.9,8.8,8.8,8.8l13.6,0V57.2L250.8,57.2z M227.9,37.3
			l-9.2,0v-7.8c0-0.9,0.7-1.7,1.6-1.7l7.6,0c2.6,0,4.7,1.9,4.7,4.7C232.7,35.2,230.6,37.3,227.9,37.3z"/>
		<g>
			<linearGradient id="SVGID_12_" gradientUnits="userSpaceOnUse" x1="275.1458" y1="21.949" x2="275.1458" y2="21.984">
				<stop  offset="0" style="stop-color:#EECA87"/>
				<stop  offset="1" style="stop-color:#BA7E16"/>
			</linearGradient>
			<path class="st11" d="M275.1,22C275.1,22,275.1,21.9,275.1,22"/>
			<linearGradient id="SVGID_13_" gradientUnits="userSpaceOnUse" x1="285.4741" y1="16.5977" x2="285.4741" y2="67.8037">
				<stop  offset="0" style="stop-color:#EECA87"/>
				<stop  offset="1" style="stop-color:#BA7E16"/>
			</linearGradient>
			<path class="st12" d="M275.8,22c0-2.9,2.4-5.4,5.4-5.4l30,0v21.6h-11.3v-8.6c0-0.9-0.7-1.7-1.6-1.7H286c-0.9,0-1.6,0.8-1.6,1.7
				v7.7h3.6v-3.6h8.4v17.8h-8.2v-3.6h-3.7l0,7.8c0,0.9,0.9,1.7,1.8,1.7h12c0.9,0,1.7-0.7,1.7-1.7V47h5.9h5.3v20.7H281
				c-2.9,0.1-5.3-2.3-5.3-5.1c0,2.9-2.4,5.1-5.4,5.1l-10.6,0V57.3h5.6c0.9,0,1.7-0.8,1.7-1.7v-9.3c0-1.6-3.7-3.7-3.7-3.7
				s3.7-2.1,3.7-3.6v-9.3c0-1.1-0.8-1.7-1.7-1.7h-4.6V16.6l9.6,0c2.9,0,5.3,2.4,5.3,5.4"/>
		</g>
	</g>
</g>
<g id="Layer_1">
</g>
</svg>
