<?xml version="1.0" encoding="utf-8"?>
<!-- Generator: Adobe Illustrator 24.3.0, SVG Export Plug-In . SVG Version: 6.00 Build 0)  -->
<svg version="1.1" id="Ebene_1" xmlns="http://www.w3.org/2000/svg" xmlns:xlink="http://www.w3.org/1999/xlink" x="0px" y="0px"
	 viewBox="0 0 542.3 161.3" style="enable-background:new 0 0 542.3 161.3;" xml:space="preserve">
<style type="text/css">
	.st0{fill:#007C57;}
</style>
<g>
	<path id="path4158_3_" class="st0" d="M529.2,66.4h-32.8v20.2h28.1v14.5h-28.1v27.2h33.5v16h-52.3V50.5h53L529.2,66.4"/>
	<path id="W_-_smaller_2_" class="st0" d="M454.2,144.3h-22c0,0-13.1-64.1-13.5-66.8c-0.4,2.7-12.8,66.8-12.8,66.8h-22l-15.5-93.8
		h19.4c0,0,6.5,58.4,7.2,67c0.3-2.3,12.6-67,12.6-67h23c0,0,11.3,52.8,13.1,67c1.2-14.5,6.8-67,6.8-67h19.4L454.2,144.3z"/>
	<path id="path4154_2_" class="st0" d="M340.3,88.3c-2.3-10.6-4.8-24.4-5.1-25.7c-1.2,6-2.8,15.1-5.1,25.7l-5,23.3h20.1L340.3,88.3z
		 M352.3,144.3l-3.9-18.2h-26.3l-3.9,18.2h-19.8l25.2-93.8h23.3l25.2,93.8H352.3"/>
	<path id="path4152_2_" class="st0" d="M256.5,65.3h-6v28c12.7-1.2,22.8-2.1,22.8-16C273.3,68.4,268.5,65.3,256.5,65.3 M272.1,144.3
		l-5.8-21.3c-2.3-8.6-5.8-14.6-8.2-17.2l-7.6,0.7v37.8h-18.8V50.5h25.7c20.1,0,34.6,4.7,34.6,26.5c0,14.9-6.7,21.8-17,25.5
		c3.6,2.3,7,8.3,9.2,14.9l9.1,26.9H272.1"/>
	<path id="path4150_2_" class="st0" d="M220,140.8c-7.1,2-20.1,4.8-31.2,4.8c-17.3,0-35.8-4.8-35.8-46.9c0-42,22.4-49.6,41-49.6
		c10.1,0,17.7,2.7,22,4.8v15c-4.6-1.6-14.1-4.7-22-4.7c-9.5,0-22.3,5.1-22.3,33.1c0,29.6,9.9,33.2,16.8,33.2
		c3.9,0,10.3-0.8,12.7-1.3V101h-12.7l-1.3-14.3H220V140.8"/>
</g>
<g>
	<g>
		<path id="path4148_20_" class="st0" d="M98.3,105.2l0.5-0.6c2.6-3.1,3.7-4.1,6.1-8.3c1.1-1.9,2.2-7.9,2.1-11.5l0-34.5l27.5,0l0,33
			c-0.3,7.4,0,12.4-2.4,20.3c-2.3,7.7-6.1,13.7-10.8,18.1l-23,22.5L78.7,125l16.7-16.6L98.3,105.2"/>
		<path id="path4148_19_" class="st0" d="M48.6,105.2l-0.5-0.6c-2.6-3.1-3.7-4.1-6.1-8.3c-1.1-1.9-2.2-7.9-2.1-11.5l0-34.5l-27.5,0
			l0,33c0.3,7.4,0,12.4,2.4,20.3c2.3,7.7,6.1,13.7,10.8,18.1l23,22.5L68.1,125l-16.7-16.6L48.6,105.2"/>
		<path class="st0" d="M88.7,106l-15.2,15.1L58.4,106h0l-6.2-6.2c-1-1.5-2.9-2.5-4.3-7c-0.8-3.1-0.6-7.4-0.6-7.4V50.5h52.7l0,34.9
			c0.1,2.6,0,5.4-0.9,7.7c-1.7,4.2-3.1,5.6-4.1,6.7L88.7,106 M90.7,78.4l0-17.7c0.5-1.4-1-1.1-1.6-0.9c-2.3,0.8-3.9,2.7-4.2,5.1
			v12.9l-0.1,1.5c-0.4,0.8-1,1.7-1.9,2c-0.7,0.1-1.6,0.1-2.3-0.2l-4.4-4.3l-0.8-1.2c-0.5-1.3-0.5-2.6,0.3-3.8c2.1-2.8,5-4.1,6.3-7.2
			c1-2.9-0.3-5.8-2.5-7.7h2.4c-0.6-1.8-2.7-1.6-4.1-1.6c-0.1-0.1-0.2-0.2-0.3-0.3c-1.1-1.4-1.6-2.7-2.5-2.2
			c-0.6,0.6,0.4,1.3,1.3,2.5H75c-0.1,0-0.2-0.1-0.3-0.3c-1.2-1.5-1.5-2.8-2.5-2.1c-0.5,0.6,0.3,1.2,1.2,2.4c-0.6,0-1.6,0.3-2,0.6
			c-2.4,0-5,0-7,0c1.3,3.4,5.9,2.1,7.3,2.5c-0.7,0.8-1.5,1.6-2.3,2.5c0.4,0.2,0.7,0.1,1.2,0.1c1.2,0.1,2.2-0.4,2.9-1.4
			c0.8,0,1.8,0,2.6,0c-3,3.1-6.7,6.8-9.7,9.7l-5.9-5.7l0-2.8c-0.1-0.8-1.2-1-1.9-0.7c-0.6,0.3-0.7,1.2-0.7,1.7c0,0-0.9-0.9-1.6-0.7
			c-0.4,0.1-0.9,0.3-1.1,0.7c-0.2,0.7,0.3,1.4,0.7,1.9c0,0-0.6,0.2-1.1,0.2c-0.7,0.2-1.3,0.9-1,1.6c0.3,1.3,2.3,0.9,3.9,0.9
			c0,1.7-0.6,3.2,1,3.9c0.7,0.3,1.4-0.3,1.8-0.8c1.5,1.4,3,2.8,4.1,4.3c-1.9,2-4.2,4.2-6,6c-1-0.9-1.8-2-2.6-1.6
			c-0.4,0.1-0.8,0.4-0.9,0.8c-0.3,0.7,0.6,2,0.6,2l-0.9,0c-0.5,0.1-0.7,0.5-0.9,0.9c-0.1,0.5,0.1,1.2,0.7,1.5
			c0.3,0.2,1.3,0.2,1.2,0.3c0,0-0.6,0.5-0.6,0.9c-0.1,0.5-0.1,1.1,0.3,1.5c1.6,1.1,2.4-0.2,3.8-1.7c1.1,1,1.6,2.1,3,2
			c0.7-0.2,1.2-0.8,0.9-1.6c-0.3-0.7-0.5-0.7-1.6-2l4.8-4.5c1.9,2,2.3,2.3,4,4.2c-1.5,1.6-3.5,2.7-4.1,4.7c-0.1,3.1,0,5.1-0.1,7.9
			l-2,1.9c-1.2-0.9-1.2-2-2.5-1.7c-0.5,0.1-0.8,0.5-0.9,0.9c-0.2,0.7,0.3,1.2,0.7,1.7c-0.8,0-0.2-0.2-1.2,0c-0.8,0.4-1,0.7-1,1.4
			c0.2,1,0.6,1.6,2.2,1.4c-0.4,0.6-0.8,1.1-0.7,1.8c0.1,0.6,0.4,0.8,0.8,0.9c1.4,0.4,2.2-1.1,3.2-2c1,1,1.6,2.1,2.9,2.2
			c0.5,0.1,0.7-0.2,1-0.4c0.9-1.1-0.6-2.2-1.3-3.3c1.1-1.6,3.2-3.4,4.7-5l0.1-0.4c0-1.7,0-2.3,0-3.7c0-2,0.2-2.3,1.8-3.3l1-0.4
			c0.3,1.5-0.1,2.9,0.4,4.3c1.3,3,6,2.6,8.2,2.6v3.2l-1.1-1c0,0-1.1-1-1.9-0.9c-0.4,0.1-0.9,0.4-1,0.8c-0.3,0.7,0.2,1.3,0.7,1.8
			c-1,0-1.7,0-2,0.7c-0.2,0.5-0.4,1,0.1,1.6c0.9,0.9,1,0.5,1.9,0.6c-0.3,0.5-0.7,0.9-0.7,1.5c0.1,0.5,0.4,0.9,0.9,1.1
			c1.6,0.3,1.9-0.8,3.1-2c1.8,1.6,1.8,2.2,3.3,2.1c0.4-0.1,0.7-0.4,0.9-0.7c0.6-1.3-0.7-1.8-1.5-2.8c0.6-0.8,1.7-1.4,1.8-2.1v-8.2
			c-2.3-0.1-3.3,0.2-4.2-0.4C81.1,88.1,82,85.1,82,83l0.3-0.1c1.5,0.9,3.8,0.6,5.2-0.1C89.1,82,90.5,80.2,90.7,78.4L90.7,78.4z
			 M65.6,61.4l2.1-1.7h-3.5L65.6,61.4z"/>
		<path id="path4194_2_" class="st0" d="M72.9,56.3c-0.1,0.2-0.4-0.1-0.5,0.3c0.2,0,0.7,0.4,0.9,0C73.4,56.5,73.1,56.3,72.9,56.3"/>
	</g>
	<g id="_x3C_Krone_-_kleiner_x3E__8_">
		<path id="path4184_13_" class="st0" d="M72.8,8.7h-1v1.4h-1.4v1h2.4V8.7"/>
		<path id="path4184_12_" class="st0" d="M74.3,8.7h1v1.4h1.4v1h-2.4V8.7"/>
		<path class="st0" d="M75.3,15.5v-2h1.4v-1h-2.4l0,14.7l0,17.1h-1.5V22.7l0-7.3v-2.9h-2.4v1h1.4v2c-10.1,0.4-18.2,5.1-18.5,10.8v19
			h18.5h21.7v-19C93.3,20.6,85.3,16,75.3,15.5z M66,20.7c1,0,1.7,1.2,1.7,2.6c0,1.4-0.8,2.6-1.7,2.6c-1,0-1.7-1.2-1.7-2.6
			C64.3,21.9,65,20.7,66,20.7z M54.4,44.3V29.4l5.5,14.9H54.4z M54.7,27.2h10.8l-5,15.7L54.7,27.2z M61,44.3l5-15.5l5.7,15.5H61z
			 M71.9,41.8l-5.4-14.6h5.4V41.8z M81,20.7c1,0,1.7,1.2,1.7,2.6c0,1.4-0.8,2.6-1.7,2.6c-1,0-1.7-1.2-1.7-2.6
			C79.3,21.9,80.1,20.7,81,20.7z M75.3,27.2h5.2l-5.2,14.1V27.2z M75.3,44.3L81,28.8l5,15.5H75.3z M81.5,27.2h10.8l-5.7,15.7
			L81.5,27.2z M92.6,44.3h-5.5l5.5-14.9V44.3z"/>
	</g>
</g>
</svg>
