<?xml version="1.0" encoding="utf-8"?>
<!-- Generator: Adobe Illustrator 24.3.0, SVG Export Plug-In . SVG Version: 6.00 Build 0)  -->
<svg version="1.1" id="Layer_1" xmlns="http://www.w3.org/2000/svg" xmlns:xlink="http://www.w3.org/1999/xlink" x="0px" y="0px"
	 viewBox="0 0 223.3 123.9" style="enable-background:new 0 0 223.3 123.9;" xml:space="preserve">
<style type="text/css">
	.st0{fill-rule:evenodd;clip-rule:evenodd;fill:#263286;}
</style>
<g>
	<path class="st0" d="M23.5,83.5l7-30.6h10.7l-4.6,21.5h5.9l-1.7,9.6L23.5,83.5L23.5,83.5z M43.6,84.2l6.8-31.4h16l1.1,31.4h-8.1
		l-0.9-5.3h-4.6l-1.5,5.3H43.6L43.6,84.2z M54.8,71.4h3.9l-0.9-11.1L54.8,71.4L54.8,71.4z M71.8,53.3v31.1h16.4l7.9-31.1H85.8
		l-4.1,19.5V53.4L71.8,53.3L71.8,53.3z M92.8,84.1L103.1,40h16.4L130,84.1h-12l-1.1-6.8h-10.7l-0.3,6.8H92.8L92.8,84.1z M108.5,67.1
		h5.9l-2.9-17L108.5,67.1L108.5,67.1z M126.5,52.9l2,10.1l6.8,0.2l-2.4,21H152l-1.7-9.2h-5.9l2.2-22.1H126.5L126.5,52.9z
		 M148.5,53.1l1.5,9.4h6.6l-1.6,21.3h18.4l-1.1-8.9h-5.7l1.8-21.4L148.5,53.1L148.5,53.1z M175.9,53.1l-0.2,31h9.6v-5h3.9l1.1,5h9
		l-6.1-31H175.9L175.9,53.1z M184.4,71.9h3.9L185.5,61L184.4,71.9L184.4,71.9z"/>
</g>
</svg>
