<?xml version="1.0" encoding="utf-8"?>
<!-- Generator: Adobe Illustrator 24.3.0, SVG Export Plug-In . SVG Version: 6.00 Build 0)  -->
<svg version="1.1" id="Layer_1" xmlns="http://www.w3.org/2000/svg" xmlns:xlink="http://www.w3.org/1999/xlink" x="0px" y="0px"
	 viewBox="0 0 493 493" style="enable-background:new 0 0 493 493;" xml:space="preserve">
<style type="text/css">
	.st0{fill:#1F36C7;}
</style>
<g>
	<g>
		<g>
			<g>
				<g>
					<g>
						<path class="st0" d="M221.6,383.8c2.3,0,6.1-0.7,9.2-5.6c-1.7-3.9-3-11.7-3.2-14.5c-0.9-14.6,4.7-28.3,10.9-28.6
							c4.5-0.3,8.1,4,8.5,10.9c1.1,18.2-4.9,25.7-8,32.3c0.5,2.5,4.8,6.8,8.8,6.8c1.5,0,3.3-0.8,3.8-1.3c-0.3-1-0.6-2.4-0.6-4.4
							c0-10.5,6.8-19.4,12.6-19.4c4.7,0,7.4,6.1,7.4,10.2c0,4.8-4.1,8.7-10.1,12.5c1.1,1,3,1.8,4.7,1.8c8.6,0,13.1-10.4,16.4-19.8
							c0.6-1.8,1.7-4.4,3.8-4.4c3.6,0,5.1,23.7,11.1,23.7c2.6,0,4.6-5.3,4.6-9.3c0-3-1-3.3-1-7.7c0-4.8,2.6-8.8,6-8.8
							c2.1,0,2.9,2.1,2.9,4.6c0,9.6-6.9,27.5-17.1,27.5c-7.7,0-7.1-13.2-9.8-13.2c-3,0-7.2,13.4-22.1,13.4c-2.4,0-5-1.2-7.1-3.6
							c-3.6,2.4-6.6,3.5-10.1,3.5c-5.6,0-8-5.7-10.2-5.7c-2.7,0-5.7,5.8-14.7,5.8c-7.2,0-8.4-9.6-11-9.6c-2.3,0-5.7,9.6-9.5,9.6
							c-6.3,0-7.7-16.7-13.2-16.7c-4.4,0-18.1,16.9-21.9,16.5c-1.5-0.2-2.1-1.3-2-2.8c0.2-2.1,2-7.7,2.7-10.3
							c1.2-4.6,2.3-9.6,3-11.2c0.6-1.6,2.3-2.8,3.6-2.6c0.7,0.1,0.9,1.3,1.1,2.3c0.8,3.7,1.8,7.5,3,7.5c2.1,0,9.1-13.4,13.1-13.4
							c5,0,5.6,21,12.3,21c2.3,0,3.9-2.7,5.4-6c0.2-5.6,1.7-13.5,6.2-13.5c3.2,0,4.7,7.1,2.4,13.2
							C213.7,382,218.5,383.8,221.6,383.8z M341.8,365.8c-1.9,7.7-7.5,19.1-15.9,19.1c-2,0-5.4-0.8-5.4-2.7
							c0-2.1,13.2-2.4,13.2-12.5c0-3.7-3.4-9-8.6-9c-6.8,0-13.4,7.4-13.4,17.6c0,9.1,5.7,12.2,11.4,12.2c9.9,0,15.9-8.1,19.1-14.9
							c1.5,4.5,2.4,14.9,6.2,14.9c1.5,0,2.6-0.7,4.4-4.8c4.5-10.1,8.9-21.6,14.9-21.6c2.2,0,0.9,4.1,6.3,4.1c2.6,0,4.4-2.1,4.4-4.5
							c0-3.5-3.1-6.2-8-6.2c-14.1,0-17.1,21.2-19.4,21.2c-3.7,0-2.6-17-5.3-17C343.3,361.6,342.1,364.5,341.8,365.8z M242.1,350
							c-0.3-4.2-1.3-6.1-3.5-5.9c-3,0.2-4.4,9.6-3.8,19.5c0.4,6.4,1.3,7.5,2.3,7.4C238.7,370.8,242.7,359.3,242.1,350z M217.7,341.2
							c-0.2-2.4-2.1-4-4.7-4c-2.8,0-5.5,3-5.3,6.7c0.2,2.5,1.6,4.5,4.5,4.5C215.6,348.4,218,344.6,217.7,341.2z M264.4,371.8
							c0-2.6-1.3-4.7-3-4.7c-1.4,0-4.5,1.5-4.5,6.3c0,3.8,1.3,5.6,2,6.3C263.2,378.4,264.4,374.8,264.4,371.8z M323.2,366.7
							c3.1,0,4.1,3.7,3.3,6c-0.8,2.2-3.4,4.8-7.7,5.6C317.9,376,317.5,366.7,323.2,366.7z M150.2,356c-0.4-1.4-1.7-4.4-2-6.7
							c-0.7-5,1.9-8.3,4.3-9.1c2.7-0.8,3.7,0.6,4.8,3.8c1.4,4.8,1.5,11.1,1,20.1c-0.6,12.3-6.7,27.2-22.1,26.9
							c-13.2-0.3-19.1-8.9-19.7-21.9c-0.3-6.2,0.2-12.3,2.7-21c1.3-4.7,2.6-6.3,6.7-7.2c3.3-0.6,3,2.9,2.3,6.9
							c-1.6,9-2.4,13.4-1.8,23.6c0.6,10.8,5.6,15,11,15c8.1,0.2,11.7-6.6,13.2-16.4C151.8,362.2,151,358.4,150.2,356z"/>
					</g>
				</g>
			</g>
			<g>
				<g>
					<path class="st0" d="M327.4,160.6c1,7.6,12.5,17.8,15.6,17.5c2.1-0.2,2.9-9.9,2.9-17.5c0-4.4,0.2-7.8-2.1-8.6
						C340.1,159.4,330.5,160.9,327.4,160.6z M328,157.2c8.3,0,15.9-6.6,15.9-12.4c0-2.7-1.3-4.9-4.6-5.3c0.6,0.7,0.8,1.3,0.8,2.6
						c0,4.4-6.7,9.2-13.9,9.2c-2.6,0-3.4,1.8-3.4,2.8C322.8,156.3,324.9,157.2,328,157.2z M326.3,148.2c-1.1,0-2.7,0-3.6-1.8
						c-0.7-1.4-0.5-3.8-1.8-4.8c1.4,0.4,2.8,0.4,3.9,0.4c3.6,0,7-2.5,9.6-2.5c1.7,0,2.3,1.1,2.3,2.2
						C336.7,145.4,329.6,148.2,326.3,148.2z"/>
				</g>
				<g>
					<path class="st0" d="M147.9,210.7c2.7,0,2.2-16.6,6.5-16.6c1,0,1.3,1,1.3,2.3c0,3.8-1.8,9.3-1.8,12.3c0,1.5,0.4,2,1.1,2
						c1.9,0,5.3-18.3,8.5-18.3c1,0,1.5,1.1,1.5,2.1c0,3.8-4.9,14.8-4.9,17.9c0,0.5,0.1,0.9,0.5,0.9c2,0,6-8.6,7.3-12.9
						c0.7-2.2,1.7-3.4,2.6-3.4c0.8,0,1.5,0.9,1.5,2.7c0,4.3-4,14.4-7.5,21.2c-2.7,5.3-6.9,12.8-6.9,17c0,2.2,0.4,4.4,3.5,7.1
						c-5.1-0.3-7.2-0.8-9.1-4.8c-8.5,17,15.7,15.3,7.4,30.4c-1.5-2.7-13.5-5.5-13.5-21.3c0-13.6,11.9-21.6,11.9-27.3
						c0-1.1-0.4-2.1-1.4-2.9c-2.6-2.2-2.7-4.1-4.8-4.1c-1.5,0-3.4,3.5-1.4,6.6c0.6,1,1.2,1.7,1.2,2.6c0,2.2-3.5,8.2-6,8.2
						c-2.5,0-4.4-6.1-4.4-16c0-8.8,2-17.6,4.5-17.6c0.7,0,1,0.5,1,1.1c0,1-0.3,3.1-0.3,6.6C146.4,210.4,147.2,210.7,147.9,210.7z"/>
				</g>
				<g>
					<path class="st0" d="M168.3,234.1c3.3,0,6.1-2.5,6.1-8V218c0-3.1,0.2-6.6,2.3-9.1c-0.2,1-0.2,2.2-0.2,3.2
						c0,6.9,3.8,11.6,3.8,18.2c0,2.5-0.7,3.8-2.6,3.8c-1.8,0-1.7-1.7-2.1-1.7c-0.3,0-0.8,1-0.8,2.1c0,1.7,1.2,4.3,4.5,4.3
						c2.9,0,5.2-2.6,5.2-5.6c0-7.2-5.6-15.1-5.6-22.8c0-3.4,0.9-5.6,1.6-7.3c0,15.9,13.5,27.4,13.5,34c0,1.5-1.1,2.7-2.8,2.7
						c-1.8,0-2.7-1.5-2.7-2.6c0-0.6-0.1-0.7-0.3-0.7c-0.5,0-1.9,1.6-1.9,3.7c0,2.6,2.1,5.8,6.1,5.8c4.5,0,7-3.8,7-7.3
						c0-8.4-16.3-21-16.3-34.6c0-2.3,0.4-6.1,2.1-8.9c-10.5,6.8-13.8,15.8-13.8,23.7c0,6.9-0.2,10.3-3.7,10.3
						c-1.8,0-2.3-1.7-2.9-1.7c-0.5,0-0.7,1.4-0.7,1.8C164,232.4,166.1,234.1,168.3,234.1z"/>
				</g>
				<g>
					<path class="st0" d="M306.4,154.5c3.5,0,6.1-1.6,6.1-2.6c0-0.3-0.5-0.6-1.5-0.6c-1,0-3.1-0.1-7-0.7c-3.4-0.6-5.9-1.8-6.9-1.8
						c-0.3,0-0.5,0.2-0.5,0.4C296.7,151.3,300.5,154.5,306.4,154.5z M289,144.3c1-0.7,5.5,0.4,11.3-2.5c0.7-0.4,1.4-0.6,2.1-0.6
						c2.8,0,2.1,3.2,4.6,3.2c2,0,4.5-1.7,6.1-1.7c2.4,0,5.8,7.5,5.8,11c0,4.1-6.1,6.5-13.4,6.5c-10.6,0-17-9.2-17-15.2
						C288.6,144.7,288.8,144.5,289,144.3z"/>
				</g>
				<g>
					<path class="st0" d="M170,264.1c-2.6,0.6-6.9,4.8-6.9,11.3c0,7.8,8.4,19.9,22.2,19.9c11.6,0,14.5-8.1,14.5-13.5
						c0-12-7.4-20.5-17-20.5c-5.3,0-10,3.8-10,9.5c0,5.3,4,13.2,13.5,13.2c4.5,0,7.1-3.2,7.1-6.9c0-3.6-3.3-8.5-8-8.5
						c-1.4,0-2.5,0.9-2.5,2.5c0,1.9,2.6,3.8,5.9,3.8c0.8,0,1.4-0.2,1.8-0.3c0.2,0.2,0.2,0.6,0.2,1c0,1.8-1.8,3-4.5,3
						c-4.1,0-8-3-8-7.8c0-2.9,2.5-4.9,6.1-4.9c7.1,0,11.3,6.3,11.3,12.6c0,5.7-3.1,8.9-9.5,8.9C173.4,287.3,167.2,275.8,170,264.1z"
						/>
				</g>
				<g>
					<path class="st0" d="M254.8,294.9c0,1.8,1.4,3.2,3.2,3.2c1.8,0,3.2-1.4,3.2-3.2c0-1.7-1.4-3.2-3.2-3.2
						C256.2,291.7,254.8,293.2,254.8,294.9z M260.9,310.8c3.8,0,3.6-0.3,4.8-0.3c1.2,0,1.3,0.7,1.3,1.2c0,1.7-3.9,3.9-10.8,3.9
						c-4.1,0-6.5-2.2-7.3-4.5c-4,2.5-10,4.9-16,4.9c-16.3,0-20.5-7.1-25.6-9.4c-3.9-1.8-9.9,1.7-18.3-7.7c1.1,0.2,2.6,0.3,3.8,0.3
						c7.3,0,11.2-3.6,11.2-9.3c0-0.7-0.1-1.5-0.2-2.2c2.2,0.9,7.3,4.7,8.5,11.5c0.2,0.8,3.4,1.5,5.5,1.5c2.9,0,6.5-1.2,7.1-5.9
						c9.6-0.8,16-6.4,17.4-13.6c3.4,1.1,7.3,4.2,8.3,5.8c1.4-0.5,2.9-0.7,4.8-0.7c2.6,0,5.4,0.5,8.8,1.5c0.2-1,0.3-2.3,1.9-2.3
						c2.4,0,1.7,2.6,2.5,4.2c0.4,0.8,2.4,1.3,2.4,2.9c0,1.5-1.3,2.1-2.1,2.1c-0.3,0-0.7-0.1-1-0.1c-1.6,0.5-1.7,12-8.4,12
						c-4.9,0-9.5-4.1-11.5-9.2c-0.6-1.5-1.7-2.5-2.9-2.5c-1.3,0-2,0.2-3.5,1.9c-4.3,4.7-11.5,8.8-20.3,8.8c-2.7,0-4.9-0.2-5.4-0.2
						c-0.3,0-0.3,0.1-0.3,0.2c0,0.5,2.7,2.7,8.6,2.7c14,0,17.5-7.9,19.7-7.9c0.3,0,1.3,0,1.8,1.3
						C249.3,309.1,256.5,310.8,260.9,310.8z"/>
				</g>
				<g>
					<path class="st0" d="M309.3,260.1c-1.7,0-10.9,12.4-16.9,12.4c-1.4,0-2.6-2.7-2.6-4.8c0-1.1,0.7-1.9,3.3-2.5
						c13.7-3.1,10.7-13.4,22.4-13.4c6.5,0,13.6,4.4,13.6,14.3c0,10.5-15,23.6-17.2,23.6c-1.8,0-3.8-2.6-3.8-4.4
						c0-0.5,0.2-1.3,1.8-1.9c7.6-3,12-10.1,12-13.6c0-0.8-0.4-1.6-1.4-1.6c-1.4,0-7.2,13.2-13.6,13.2c-4.5,0-9-4.1-9-6
						c0-3.2,12.9-9.1,12.9-13.6C310.7,260.1,309.9,260.1,309.3,260.1z M317.9,255.1c-1.1,0-2.3,0.9-2.3,3c0,2.4,1.8,3.9,2.9,4.4
						c0.6,0.3,1.4,0.6,2.3,0.6c2.3,0,4.2-0.6,4.2-2.6C324.9,258.2,321.3,255.1,317.9,255.1z"/>
				</g>
				<g>
					<path class="st0" d="M169,162.8c0,1.8,1.5,3.2,3.2,3.2c1.7,0,3.2-1.4,3.2-3.2c0-1.7-1.4-3.2-3.2-3.2
						C170.4,159.6,169,161.1,169,162.8z M164.9,155.6c0,1.8,1.4,3.2,3.2,3.2c1.7,0,3.2-1.4,3.2-3.2c0-1.7-1.4-3.2-3.2-3.2
						C166.3,152.5,164.9,153.9,164.9,155.6z M162,177.5c-1.8,0.5-5.7,2.7-5.7,6.7c0,2.9,2.2,4.7,5,4.7c1.4,0,2.5-0.3,3.1-0.8
						c-2.2-2.1-3-4.5-3-6.9C161.4,179.5,161.7,178.5,162,177.5z M142.4,178.6c-0.1,0.4-0.1,0.8-0.1,1.2c0,3.7,2,5.8,4.6,5.8
						c2,0,4.3-1.2,6.4-3.8c-0.9,0.2-1.9,0.2-2.9,0.2C147.5,182,144.4,181.2,142.4,178.6z M139.7,185.7c0,6.1,1.8,8.9,5.1,8.9
						c2.5,0,6-1.8,10-5.4c-3.1,0.7-5.5,1.2-7.7,1.2C144.3,190.5,142,189.4,139.7,185.7z M160.3,153.8c0.4-1.3,0.7-2.9,0.7-4.6
						c0-3.8-1.8-9.6-7.2-9.6c-3.1,0-5.3,2.5-5.3,5.4C148.5,151.3,154.8,153.8,160.3,153.8z M153.5,173.9c-2.6,0-5.5-3.3-5.5-6.2
						c0-1.6,1.2-3.6,2.1-3.6c0.3,0,0.5,0.2,0.5,0.8c0.5,3.9,3,6.1,5.4,7.2c0.2,0.2,0.4,0.2,0.4,0.4
						C156.5,173.1,155,173.9,153.5,173.9z M160.9,164.2c0.6,0.7,2.1,1.7,2.1,2.2c0,1.1-0.6,2.5-1.9,2.5c-2.8,0-5-4.2-5-6.6
						c0-1.5,0.9-1.7,2.1-1.7c0.6,0,0.8,0.1,1.2,0.3C160,161.4,160,163,160.9,164.2z M142.1,174.1c-0.1,0.2-0.2,0.6-0.2,0.9
						c0,0.7,0.8,1.5,1.5,1.5c0.6,0,1-0.2,1.4-0.2c1.9,0,4,1.4,7.2,1.4c1.8,0,4-0.6,6.7-1.9c5.7-2.9,8-10,8-11.2
						c0-1.5-1.2-1.3-2.2-2.7c-1-1.4-0.6-2.6-1.3-3.3c-0.4-0.4-1.5-0.4-2.9-0.5c-0.5-0.1-1.1-0.1-1.8-0.1c-2.6,0-5.8,0.3-9.3,2.5
						C142.2,164.9,143.2,172.2,142.1,174.1z M168.6,170.9c-1.8,2.1-3.6,5.6-3.6,9.2c0,4.3,2.6,7.9,6.7,7.9c3.9,0,5.7-3.4,5.7-6.8
						C177.4,175.8,172.6,172.1,168.6,170.9z M151.5,155.6c0,0-2.3,1.7-5.2,1.7c-3.4,0-6.1-2.5-6.1-6.1c0-2.5,1.3-5,4.2-6.3
						c-0.1,0.5-0.1,0.9-0.1,1.4C144.4,150.8,146.9,154.2,151.5,155.6z"/>
				</g>
				<g>
					<path class="st0" d="M292.1,182c0,1.8,1.5,3.4,3.3,3.4c1.8,0,3.3-1.5,3.3-3.4c0-1.8-1.5-3.3-3.3-3.3
						C293.6,178.7,292.1,180.2,292.1,182z M292.3,192.1c0,2.1,1.7,3.7,3.8,3.7c2.1,0,3.7-1.7,3.7-3.7c0-2.1-1.7-3.7-3.7-3.7
						C294,188.3,292.3,190,292.3,192.1z M280.8,198.9c0,3,2.5,5.5,5.5,5.5c3,0,5.5-2.5,5.5-5.5c0-3-2.5-5.5-5.5-5.5
						C283.3,193.4,280.8,195.8,280.8,198.9z M283.8,187.6c0,1.8,1.4,3.2,3.2,3.2c1.8,0,3.2-1.4,3.2-3.2c0-1.8-1.4-3.2-3.2-3.2
						C285.2,184.4,283.8,185.9,283.8,187.6z M273.3,194c0,1.7,1.4,3.2,3.2,3.2c1.8,0,3.2-1.4,3.2-3.2c0-1.8-1.4-3.2-3.2-3.2
						C274.8,190.8,273.3,192.2,273.3,194z M281.5,175.3c0,2.8,2.3,5.1,5.1,5.1c2.8,0,5.1-2.3,5.1-5.1c0-2.8-2.3-5.1-5.1-5.1
						C283.9,170.2,281.5,172.6,281.5,175.3z M287.5,165.5c0,1.7,1.4,3,3,3c1.7,0,3-1.4,3-3c0-1.7-1.4-3-3-3
						C288.9,162.5,287.5,163.9,287.5,165.5z M273.1,173.2c0,1.7,1.3,3,3,3c1.7,0,3-1.4,3-3c0-1.7-1.4-3-3-3
						C274.5,170.2,273.1,171.5,273.1,173.2z M272.7,183.5c0,2.7,2.2,4.9,4.9,4.9c2.7,0,4.9-2.1,4.9-4.9c0-2.7-2.2-4.9-4.9-4.9
						C274.9,178.7,272.7,180.8,272.7,183.5z M262.7,188.6c0,2.5,2.1,4.5,4.5,4.5s4.5-2.1,4.5-4.5c0-2.5-2.1-4.5-4.5-4.5
						S262.7,186.2,262.7,188.6z M265.4,177.4c0,1.8,1.4,3.2,3.2,3.2c1.8,0,3.2-1.4,3.2-3.2c0-1.7-1.4-3.2-3.2-3.2
						C266.8,174.2,265.4,175.7,265.4,177.4z M293.3,202c0-1.6,1.4-2.9,3-2.9c1.8,0,3.1,1.4,3.1,2.9c0,1.8-1.4,3.1-3.1,3.1
						C294.8,205.1,293.3,203.8,293.3,202z"/>
				</g>
				<g>
					<path class="st0" d="M295.4,293.6c0.4,0,0.9,0.2,0.9,1.7c0,1.7-0.8,4.1-3.7,5.9c-2,1.4-4.7,2.5-8.7,2.6
						c0.6-1.9,1.1-3.9,1.1-5.8c0-0.6-0.1-1.1-0.2-1.8h1C292.2,296.1,294.9,293.6,295.4,293.6z M296.1,285.7c0.6-0.6,0.8-1.4,0.8-2.3
						v-1.8c0-2.3-3.5-3.7-8.3-3.7c-5.8,0-8.9,2.6-8.9,3.7v3.7c0,1.5,3.5,3,7.8,3C290.9,288.4,294,287.5,296.1,285.7z M300.2,286.6
						c-2.1,1.6-6.9,5.2-15,5.2c-4.3,0-6.2-1.4-6.9-1.4c-0.8,0-1.7,0.8-2.6,1.8c-1.9,2.2-4.4,6.4-4.4,10.9c0,3.2,2.5,6.4,7.1,6.4
						c14.9,0,26.1-9.3,26.1-16.9C304.6,288.4,302,286.6,300.2,286.6z"/>
				</g>
				<g>
					<path class="st0" d="M303,219.6c0,2,0.6,4.3,2.6,4.3c1.7,0,3.1-2.6,3.1-5.3c0-3.2-0.6-5.7-0.6-6.9c0-0.6,0.2-0.8,0.6-0.8
						c1.2,0.1,2.3,3.4,3.6,3.4c1.4,0,3.6-2.6,4.4-2.6c0.2,0,0.3,0.3,0.3,0.4c0,1.2-1.8,3.8-1.8,4.9c0,0.9,4.6,1,4.6,1.8
						c0,1.2-4.9,1.2-7.2,2.2c-2.2,1-3.6,2.2-3.6,3.7c0,1.6,1.6,1.9,3.8,1.9c5.3,0,9.1-2.9,10.3-2.9c0.2,0,0.4,0.2,0.4,0.4
						c0,0.8-2.7,3.4-2.7,4.6c0,1.4,5,2.9,4.9,3.7c-0.1,0.2-0.4,0.3-0.9,0.3c-0.9,0-2.2-0.2-3.3-0.2c-0.6,0-1.2,0.1-1.4,0.4
						c-0.6,0.6,0.2,4.9-1,4.9c-1,0-3.7-9.4-9.9-9.4c-0.9,0-1.5,0.7-1.5,1.9c0,3.2,3.1,6.9,6.1,8.6c1.3,0.9,3.6,1.8,3.6,2.2
						c0,1-5.1,0.1-5.1,1.7c0,1.4,0.6,3.6,0.6,4.9c0,0.4-0.1,0.9-0.6,0.9c-0.9,0-3.3-4.4-4.4-4.4c-1,0-3,2.6-3.9,2.6
						c-0.2,0-0.4-0.2-0.4-0.5c0-1.8,3-6,3-10c0-1.9-0.2-6-2.6-6c-1.9,0-4.1,3-5,6c-0.6,1.8-0.2,8.5-1.4,8.5c-1.2,0-0.9-4.5-2.5-4.5
						c-1.2,0-3.7,2.2-4.6,2.2c-0.2,0-0.3-0.1-0.3-0.2c0-1,2.3-4.1,2.3-4.7c0-1.2-5.3-1.4-5.3-2.3c0-0.6,2.1-1,4-1.3
						c4.1-0.7,10-3.7,10-7.8c0-4.6-4.5-6.6-7.4-8.5c-1.5-1-3.2-1.8-3.2-2.4c0-0.6,1.9-0.6,2.7-0.6c1.2,0,2.4-0.1,2.4-1
						c0-0.7-0.2-2.2-0.2-3.3c0-0.8,0.1-1.4,0.4-1.4c1.2,0,2.9,3.9,3.7,3.9c1.3,0,3-3.2,4.2-3.2c0.4,0,0.6,0.2,0.6,1
						C304.5,213.4,303,216.7,303,219.6z M265,196.2c0.9,6.8,10,3.3,10,11.5c0,1.2-0.3,3-0.3,4.5c0,1.8,0.2,3.3,1.5,3.3
						c1.4,0,1.7-1,1.7-2.2c0-1.3-0.3-2.9-0.3-3.7c0-2.8,2-3.4,3.2-3.4c3,0,5.3,3.1,9.9,3.1c-1,5.1-11.6,3.7-11.6,9.3
						c0,2.8,2.8,3.4,4.6,3.4c1.7,0,2.2-0.2,2.2-1.7c0-0.8-0.2-1.7-0.2-2.2c0-0.3,0.2-0.6,0.6-0.6c1.7,0,10.3,6.5,10.3,8.5
						c0,1.8-9.1,3.7-11.7,3.7c-0.8,0-1-0.6-1-0.9c0-0.6,1.4-2.2,1.4-3.2c0-0.7-1.2-1.2-4.4-1.2c-1.5,0-2.6,0.2-2.6,1.4
						c0,2.2,3.5,4.8,3.5,6.8c0,1.6-1,2.6-3.5,2.6c-2.2,0-5.4-1.7-5.4-4.5c0-2.2,2.3-4.5,2.3-5.8c0-0.4-0.3-1-1.3-1
						c-2.9,0-3.7,7.8-14.2,8.7c1.7-1.5,3.1-3.2,3.1-6.6c0-1.7-0.4-3-0.4-4.9c0-2.4,1.1-3.6,2.7-3.6c3,0,4.4,4.1,6.3,4.1
						c1,0,2.2-0.9,2.2-2.4c0-6.1-11.6-5.2-11.6-13.7C262,203.1,262.8,200.2,265,196.2z"/>
				</g>
				<g>
					<path class="st0" d="M280.1,248c0,1.1,0.8,2,1.9,2c1.3,0,2.1-1.1,2.1-2.4c0-1.7-1.5-4-2.9-4c-0.6,0-0.4,1-0.6,2
						C280.5,246.4,280.1,247.4,280.1,248z M276,237.4c8.4,1.6,12.9,7.9,12.9,13.8c0,4.1-2.5,7.8-7,7.8c-4.1,0-7-2.8-7-7.2
						c0-3.4,2.6-6.8,2.6-10.3C277.5,240.1,277.1,238.8,276,237.4z M265.4,251c0.8,0.8,1,1.6,1,2.4c0,1.2-0.6,2.5-0.6,3.8
						c0,1.9,1.4,3.6,3.5,3.6c2.2,0,3.8-1.8,3.8-3.8C273.1,253.9,270,251,265.4,251z M291.8,245.9c0.5,0.9,0.8,1.7,0.8,2.5
						c0,2.2-1.5,4.3-1.5,6.6c0,2.7,2,4.8,5,4.8c3.3,0,5.5-2.6,5.5-5.7C301.6,249.9,297.7,246.3,291.8,245.9z M267.3,241.7
						c3.7,0.5,4.5,1.8,4.5,2.8c0,1.8-1.6,2.3-3.1,2.3c-1.1,0-2.4-0.2-3.7-0.2c-1.8,0-3.5,0.4-4.9,2.1c1,0.1,2.6,0.9,2.6,2.5
						c0,4.6-12.8,0.8-12.8,12.7c0,6.3,6.5,13.2,16.4,13.2c5.1,0,8.4-1.7,8.4-3.6c0-1.5-2.7-0.5-2.7-1.7c0-0.6,1-1.6,1-2.5
						c0-0.4-0.3-1.1-1-1.1c-1.4,0-4.1,2.3-9.6,2.3c-4.3,0-8.5-2.5-8.5-5.8c0-0.7,0.3-1.1,0.8-1.1c0.5,0,1.1,0.3,1.7,0.3
						c0.5,0,0.5-0.3,0.5-1.2c0-0.9,0-3.4,1.5-3.4c1.5,0,4.4,5.6,15.4,5.6c3.7,0,10.7-0.7,13.4-3.1c-0.1,8.7-6.9,20.3-21.3,20.3
						c-14.9,0-22.9-12-22.9-23c0-12.2,10-23.3,23.6-23.3c3.5,0,6.5,1.2,6.5,2.7C272.9,240.5,267.7,239.2,267.3,241.7z"/>
				</g>
				<g>
					<path class="st0" d="M215.7,150.6c5.3,0,7.6,4.6,7.6,9.6c0,2.2-0.6,5.5-1.7,5.5c-1,0-0.9-1.8-1-3.5c-0.1-2.1-0.6-2.6-1.3-2.6
						c-1.3,0-2.2,3.2-2.2,6.1c0,1.8,0.3,3.9,1.7,3.9c0.8,0,1.5-0.4,2-0.9c-0.3,3.7-3,6.9-6.9,6.9c-7,0-9.6-8.2-10.4-13
						c-4.2,4.5-8.1,7.7-15.1,7.7c-6.5,0-9.5-4.8-9.5-9.3c0-1.4,0.5-4.9,2.2-4.9c2,0,0.2,6.5,4.2,6.5c1,0,2.7-0.8,3.7-3.4
						c0.6-1.6,0.9-3.3,0.9-4.7c0-2.2-0.5-3.5-2.1-3.5c-1.4,0-3,1-3.6,1.6c1.9-5.7,6.5-8.7,11.6-8.7c6.3,0,9.6,5.6,9.6,11.8
						c0,0.9-0.1,1.8-0.2,2.7C207.9,154.1,211.6,150.6,215.7,150.6z M209.6,160c0-1.4-0.3-1.7-0.6-1.7c-0.8,0-1.7,1-2.9,3.1
						c0.2,2.9,0.6,4.2,1.4,4.2C208.3,165.6,209.6,162.8,209.6,160z M198.6,163.3c0.9,0,2-1,4.1-3.3c0.2-1,0.2-2,0.2-3.2
						c0-1.6-0.6-3.3-1.6-3.3c-2.4,0-3.6,6.4-3.6,8.1C197.7,162.5,198.2,163.3,198.6,163.3z M211.6,170.4c2,0,4.2-7.6,4.2-12.4
						c0-1-0.2-2.1-0.6-2.1c-1.7,0-4.5,7.9-4.5,12.2C210.8,169.7,211.2,170.4,211.6,170.4z M192.1,166c2.7,0,5.8-14.7,5.8-17.1
						c0-0.6-0.2-1.1-0.8-1.1c-2.5,0-5.9,14-5.9,17.1C191.2,165.4,191.4,166,192.1,166z"/>
				</g>
				<g>
					<path class="st0" d="M200.8,172.1c-3.4,0-3.6,4.2-3.6,12.5c-2.5-5.5-6.8-11.4-11.7-11.4c-3.4,0-4.6,2.2-4.6,6.1
						c0,0.8,0.1,2,0.2,2.7c0.4-1.4,1.7-1.9,3.3-1.9c3.4,0,7.6,2.6,10.3,6.2c-3.1-0.5-6.1-1.1-8.7-1.1c-1.6,0-3,0.2-4.2,0.7
						c-2.3,1-5.4,4.5-5.4,9.6c0,0.8,0.1,1.7,0.2,2.6c2.8-6.2,10.2-9,15-9c1,0,1.7,0.1,2.2,0.2c-2.5,2.2-3,6.1-3.2,8.8
						c-0.1,1.3-0.6,1.4-1.4,1.4c0,2.6,2.1,6.5,2.1,8.5c0,0.7-0.4,1.4-0.8,1.5c0,3.5,3.5,6.1,3.5,8.3c0,0.6-0.2,1-0.4,1.3
						c0.2,1.4,4.1,3.8,4.6,5.1c0.6,1.5,1.3,1.7,1.7,1.7c1.4,0,3.5-1.6,3.5-3c0-0.5-0.4-1-0.7-1.3c-1.5-1.1-2.3-3.5-2.9-5.1
						c-0.6,0-1.3-0.2-1.5-1.2c-0.4-1.7-0.5-4.7-1.1-6.6c-1-0.2-1.5-0.6-1.5-2.8c0-1,0.6-5.1,0.6-6.5c-0.5,0-1.1-0.3-1.1-1.3
						c0-2.5,2.5-4.6,3.3-7.8c4.5,3.4,5.6,6.8,5.6,9.8c0,1.6-0.2,3.1-0.5,4.5c3.3-1.7,8.4-4.1,8.4-9.2c0-3-1.4-6.2-10.4-7.5
						c2.8-1,6.3-1.6,9.2-1.6c5.1,0,8,1.6,8.7,5.2c1-1.6,1.8-3.4,1.8-5.1c0-3.9-3.3-6.5-7.4-6.5c-4.9,0-9.2,2.5-13.8,5.7
						c2.1-4.3,3.5-6.9,6.1-6.9c0.4,0,0.8,0.1,1.2,0.2C206.3,175.5,202.7,172.1,200.8,172.1z"/>
				</g>
				<g>
					<path class="st0" d="M335.1,229.5c4,0,7.2,5.2,7.2,11.3c0,6.5-3,13.5-8.4,18.2c-0.1-10.7-13.3-7.3-13.3-15.1
						c0-3.4,2.4-5.6,5.3-5.6c2.5,0,4.5,0.7,6,2.2c-1.4-1.4-2.2-3.3-2.2-5.1C329.7,232.3,331.6,229.5,335.1,229.5z"/>
				</g>
				<g>
					<path class="st0" d="M276,148c-0.6-1-3-1.6-4.1-1.6c-3.5,0-5.9,2.5-6.4,4.7c-0.3-0.8-0.6-1.8-0.6-2.7c0-3.5,2.4-7.8,8.2-7.8
						c5.1,0,7.1,2.7,7.8,2.7c0.8,0,1.6-0.8,2.2-0.8c0.9,0,0.9,1.4,0.9,2.3c0,3.2-1.4,8.7-5,10.7c-0.6-1.4-1.9-2.9-4-3.8
						c-0.6-0.2-0.8-0.7-0.8-1.2C274.2,149.6,275,148.5,276,148z M263.9,153.8c2.1,2,3.9,2.9,6.1,2.9c0.9,0,1.9-0.2,2.5-0.2
						c0.7,0,1.2,0.3,1.2,0.9c0,0.9-0.8,2.3-1.8,3.1c0.9,0.4,2,0.6,3.1,0.6c4.5,0,9.7-2.9,9.7-10c1,1.3,1.5,3.9,1.5,5.1
						c0,8.7-6.4,12-12.3,12c-3.8,0-5.8-1.3-6.2-1.3c-1.5,0-1.4,3-2.5,2.9c-1.8-0.3-3.5-4.4-3.5-8.7
						C261.9,158.5,262.5,155.8,263.9,153.8z"/>
				</g>
				<g>
					<path class="st0" d="M195.7,103.1c0-0.5-2.4-1-5.7-1c-5.2,0-4.5,4.3-8.4,4.3c-4.1,0-3.1-4.5-8.4-4.5c-3.2,0-6.1,0.6-6.1,1.3
						c0,0.9,3.7,0.6,3.7,3.2c0,2.8-8.1,3.6-8.1,5.3c0,0.6,0.6,0.8,1.4,0.8c1.8,0,4.5-0.8,6.5-0.8c1.1,0,2.2,0.2,2.2,1.3
						c0,2-4.3,5.6-4.3,7.2c0,0.5,0.4,0.6,0.8,0.6c1.6,0,4.3-4.1,6.9-4.1c4.2,0,1.4,9,3.7,9c2.4,0,1.4-8.9,4.8-8.9
						c2.8,0,4.9,6.1,6.8,6.1c0.5,0,0.9-0.4,0.9-0.9c0-1.7-2.4-5.1-2.4-7.3c0-1.4,1-2,2.2-2c1.8,0,4.3,1.1,5.7,1.1c0.5,0,1-0.2,1-0.7
						c0-1.9-7.1-4-7.1-6.5C191.8,104.2,195.7,104.2,195.7,103.1z M214.4,111.2c0,1.4,5,4.5,7.3,4.5c1.3,0,1.7-1.8,1.7-3.8
						c0-2.4-1-2.5-3.1-2.5C217.8,109.6,214.4,110.3,214.4,111.2z M222.7,127c0-4.8-12.9-13.5-13.1-17.2c0-0.3,0.2-0.7,0.5-1
						c2.2-2.3,11.4-4,11.4-6c0-1-1.9-1-2.9-1c-7.4,0-18.2,2.7-18.2,5.3c0,2.7,9.7,9.3,9.7,12.6c0,0.9-0.5,1.2-1.4,1.2
						c-2.7,0-8.6-3.3-11.4-3.3c-1.3,0-1.7,0.9-1.7,2.2c0,3.8,4.5,11.1,4.5,13.2c0,0.2-0.1,0.6-0.4,0.6c-1.4,0-8.2-8-10.6-8
						c-0.9,0-1,1.2-1,3v2.7c0,1.8-0.1,3-1,3c-2.1,0-3-5.8-5-5.8c-2.1,0-2.5,10.4-4.5,10.4c-2.3,0-0.3-11.4-2.6-11.4
						c-2.5,0-5.3,7.6-7,7.6c-0.6,0-0.8-0.6-0.8-1.2c0-2.3,1.4-6.1,1.4-8.3c0-1.1-0.3-1.7-1.3-1.7c-2.5,0-7.9,4-10,4
						c-0.3,0-0.7-0.2-0.7-0.5c0-1.9,8.7-8,8.7-10.7c0-2.6-12-0.9-12-3.9c0-2.6,8.5-5.2,8.5-7.8c0-2.3-10.1-3.3-14-3.3
						c-4.7,0-7.3,0.6-7.3,1.9c0,2.1,10.7,2.7,10.7,4.5c0,1.8-11.1,6.5-11.1,9.2c0,2.4,15.6,0.1,15.6,2.6c0,2.7-13.6,14.4-13.6,18.3
						c0,0.9,0.6,1.3,1.5,1.3c4.1,0,14.9-7.9,17.8-7.9c1,0,1.1,1.3,1.1,2.4c0,2.1-0.7,5.3-0.7,7.6c0,1.8,0.5,3.1,2.1,3.1
						c3,0,5.7-5,7.7-5c2.6,0,1,14.8,4.9,14.8c3.3,0,4.6-15.9,6.7-15.9c2.1,0,3.8,4.6,5.7,4.6c2.4,0,1.3-8,3.8-8
						c2.8,0,10.8,9.6,14.3,9.6c1.1,0,1.5-0.9,1.5-2c0-4.2-5.9-13.8-5.9-16.8c0-0.8,0.2-1,1.1-1c3.1,0,12.2,4.3,16.5,4.3
						C221.8,128.9,222.7,128.1,222.7,127z M149.9,122.4c0,1.6-6.1,6.9-8.2,6.9c-0.8,0-1-0.9-1-1.8c0-1.6,0.7-3.8,1.6-4.5
						c1-1,3.4-1.4,5.3-1.4C148.7,121.5,149.9,121.8,149.9,122.4z M208.5,130.6c0,2.8,10,16.4,11.9,16.4c1.6,0,2.8-2.8,2.8-5.2
						c0-0.6-0.2-1.3-0.5-1.7c-1.4-2-11.6-10-13.8-10C208.7,130.1,208.5,130.4,208.5,130.6z"/>
				</g>
				<g>
					<path class="st0" d="M336.5,106.5c0,1.1,0.9,2,2,2c1.1,0,2-0.9,2-2c0-1.1-0.9-2-2-2C337.4,104.5,336.5,105.3,336.5,106.5z
						 M323.5,124.1c0-5.7-13.5-7.1-13.5-8.4c0-1,7.6-2.8,11.5-2.9c-6-7.6-14.5-6.9-14.5-8.2c0-0.8,6.4-2.4,12.3-2.4
						c4.9,0,9.6,1.1,9.6,4.9c0,2.1-1.7,4.2-1.7,7.4c0,1.8,0.9,3.3,3.2,3.3c2.5,0,3-2.6,3-5.4c0-2.3-0.4-4.1-0.4-5.2
						c0-3.3,2.3-5.6,5.6-5.6c2.7,0,3.3,1.2,7.3,1.2c-2.1,1.3-2.9,3.6-2.9,4.7c0,3.3,2.1,5.7,2.1,12.5c0,12.6-11.8,17.1-26.2,17.1
						c-4,0-8.2-0.3-12.3-1c-0.6-0.1-0.8-0.2-0.8-0.6c0-1,5.7-1.6,5.7-6.7c0-2-0.6-3.9-0.6-4.6c0-0.4,0.3-0.6,0.6-0.6
						c1.2,0,3.6,4.6,8,4.6C320.6,128.2,323.5,127.8,323.5,124.1z M337,116c0,7.1-5.2,12.5-14.5,14c1,0.1,2,0.1,3,0.1
						c10.9,0,14.9-4.9,14.9-9.1C340.4,118.7,339.1,116.7,337,116z"/>
				</g>
				<g>
					<path class="st0" d="M331.5,218.8c1.3-4,2.9-6.8,5.5-11.1c-2.6-1.4-9.6-4.2-9.6-8.9c0-5.5,6.8-9.8,8.3-9.8
						c0.6,0,0.8,0.5,0.8,1.6c0,2.9-1.4,7.5-1.4,10c0,2.2,1.4,4.4,2.7,4.4c1.4,0,5.1-4.8,5.1-9.5c0-8.5-7.4-11-9.7-11
						c-2.1,0-6,3.5-15.2,3.5c-17.1,0-21-17-21-24.4c0-0.3,0.1-0.4,0.2-0.4c0.4,0,2.1,2.1,7.5,2.1c2.8,0,5.4-0.7,9.4-0.7
						c9.5,0,13.8,6.6,19.7,15.1c3.6,2.2,12.1,5.8,12.1,15.9c0,8.9-9.5,13.9-11.8,23.4c3.7-0.4,5.8-6.9,9.6-6.9
						c1.9,0,2.8,1.5,2.8,3.9c0,3.5-2,8.8-5.8,12c0.1-0.3,0.1-0.7,0.1-1.2c0-2.2-0.9-5.4-3.4-5.4c-4,0-5.2,4.3-7.5,7.9
						c-2.3-8.1-5.4-15.5-11-19.9c-5.6-4.5-15.4-2.1-15.4-10.4c0-2.2,1.4-5.4,1.4-8c0-0.9-0.2-1.7-0.6-2.3c7.7,2.9,4.9,8,9.7,13.2
						c2.9,3.4,11.1,6.5,15.8,20.3c0.1-0.4,0.1-1.4,0.1-2.1c0-11.8-15.6-23.4-17-28.1c9.1,1,10.7,3.3,15,15.2
						C328.7,209.6,331.5,215.8,331.5,218.8z M329.5,180.1c0-1.7-4.2-1.8-4.6-6.5c-0.1-0.7-0.3-2-1.2-2c-1.4,0-0.3,4.4-1.9,4.4
						c-3.7,0-4.9-7.2-6.2-7.2c-0.3,0-0.7,0.2-0.7,1.2c0,0.9,0.2,1.4,0.2,2.5c0,1-0.2,1.8-1.2,1.8c-2.2,0-4.1-5-5.9-5
						c-0.4,0-0.8,0.2-0.8,0.6c0,1,1.6,2.7,1.6,3.6c0,1.9-5.2,0.9-5.2,2.5c0,0.7,0.7,0.9,1.7,0.9c1.7,0,4.3-0.7,5.7-0.7
						c0.8,0,2,0.2,2,1.2c0,1.1-2.9,2.6-2.9,3.6c0,0.5,0.5,0.7,0.9,0.7c2.2,0,6-3.7,8.7-3.7c0.5,0,1.7,0.2,1.7,1c0,1-2.7,2.9-2.7,4.4
						c0,0.4,0.2,0.9,0.7,0.9c1.4,0,3.3-3.7,6.1-3.7c1,0,2.6,0.4,3.3,0.4C329.2,180.8,329.5,180.4,329.5,180.1z"/>
				</g>
				<g>
					<path class="st0" d="M270.1,132.4c1.3,0,1.5,3.1,1.8,4.9c0.2,1,0.3,1.1,0.7,1.1c1,0,2.5-3.7,3.5-3.7c1.5,0,5.6,4.2,12.4,4.2
						c9.6,0,18.7-6.8,18.7-18.7c0-11.6-8.1-18.3-19.4-18.3c-5.3,0-9.3,2.6-11.3,2.6c-1.3,0.1-3.2-3.1-4.1-3.1
						c-0.4,0-0.8,0.8-0.8,2.2c0,0.9,0,3.7-1,3.7c-1.9,0-9.3-5.5-9.3-3.5c0,1.8,4.9,7.4,4.9,8.8c0,1.4-4.9,2.8-4.9,3.8
						c0,1.7,5.2,2.1,5.2,4.3c0,2.2-5.4,4-5.4,5.7c0,1.4,5.4,0.4,5.4,2.1c0,1.7-4,7.2-4,8.8c0,0.4,0.1,0.4,0.4,0.4
						C264.4,137.5,269,132.4,270.1,132.4z M272.4,119.3c0-0.9-3.1-2.6-3.1-3.5c0-0.1,0.2-0.2,0.4-0.2c0.9,0,2.4,0.3,3.6,0.3
						c1.1,0,1.2-4.5,2-4.5c0.6,0,1.5,4.2,2.4,4.2c1,0,2.9-1.2,3.7-1.2c0.1,0,0.3,0.1,0.3,0.2c0,0.6-2,2.7-2,3.4
						c0,0.7,4.5,1.6,4.5,2.2c0,0.8-4.5,0.7-4.5,1.4c0,0.6,1.7,2.8,1.7,3.5c0,0.2-0.1,0.2-0.2,0.2c-0.6,0-3.1-1.1-3.8-1.1
						c-0.9,0-2.3,3.3-3,3.3c-0.2,0-0.4-0.3-0.4-0.7l-0.2-3.2c0-0.3-0.1-0.6-0.5-0.6c-1,0-2.8-0.1-3.4-0.1c-0.4,0-0.6-0.1-0.6-0.2
						C269.2,122.1,272.4,119.9,272.4,119.3z M287.9,134.5c-5.6,0-9.2-2.8-9.2-4.2c0-0.7,0.5-1.2,1.1-1.2c1.8,0,5.6,2.7,6.9,2.7
						c0.3,0,0.6-0.1,0.6-0.6c0-1.4-1.4-3.8-1.4-5c0-0.3,0.2-0.5,0.7-0.5c2.2,0,5.3,0.9,7,0.9c0.5,0,0.7-0.3,0.7-0.6
						c0-1.8-5.2-5.2-5.2-6.2c0-1,6.4-2.4,6.4-3.9c0-1.6-8.8-0.5-8.8-2c0-1.1,1.7-3,1.7-3.9c0-0.4-0.3-0.6-0.9-0.6
						c-0.7,0-4.5,1.5-6.1,1.5c-0.8,0-1.8-0.2-1.8-1.3c0-1.8,3.1-3.8,8-3.8c7.9,0,12.6,5.4,12.6,14.5
						C300.3,131.6,292.2,134.5,287.9,134.5z"/>
				</g>
				<g>
					<path class="st0" d="M234,272.3c0,0.7-0.2,1.5-0.9,2.3c-0.9-1.6-3.4-2.4-4.5-2.4c-8.2,0-5.1,11.9-13.9,11.9
						c-3.7,0-4-0.5-5.4-0.5c-0.6,0-0.9,0.3-0.9,0.7c0,2.1,3,7.2,11.2,7.2c8.2,0,16.1-5,16.1-11.2c0-1-0.2-2.1-0.7-3.3
						c0.3-0.5,1.1-0.8,1.8-0.8c1.3,0,2,1.4,3.2,1.4c1.3,0,2.2-1,2.2-2.2c0-1-0.6-1.7-1.5-2.2c0.6-0.5,1.1-1.3,1.1-2.2
						c0-1.3-1-2.6-2.6-2.6c-0.7,0-1.2,0.2-1.8,0.8c-0.1-1.4-0.9-2.8-2.5-2.8c-1.2,0-2.1,0.9-2.1,2.2C233.1,270,234,271,234,272.3z"
						/>
				</g>
				<g>
					<path class="st0" d="M212.5,275.4c-2.4,0-6-2.6-6-4c0-1.2,1.1-1.8,2-1.8c2,0,5.6,2.5,5.6,4.6
						C214.1,274.7,213.7,275.4,212.5,275.4z M190.3,257.5c6.4,1.6,9.6,5,10.2,9.1c0.6,3.9,1.4,7.1,2.9,8.7c2,2.2,5.9,4.2,9.3,4.2
						c2.9,0,5.2-0.9,5.2-3.6c0-2.9-3.9-9.3-9.6-9.3c-0.6,0-1.3,0.1-2.1,0.1c-0.7,0-1.8-0.2-2.4-0.7c-1.3-1.1-1.7-7.1-4.1-10.7
						c-2.6-4-5.5-5.1-9.4-5.1c-2.8,0-5.9,1.5-5.9,3.7C184.5,255.3,185.2,256.3,190.3,257.5z"/>
				</g>
				<g>
					<path class="st0" d="M230.3,247.8c0-3.6-7.4-3.7-7.4-9.1c0-1.4,0.9-3.7,2.6-6.1c0.7,4.1,2.4,6.3,6,7.7c7.1,2.6,8,6.6,8,10.8
						c0,7.2-5,16.1-17.9,16.1c-10.4,0-17.8-9.2-17.8-17c0-2.2,0.6-4.6,1.9-4.6c1.2,0,1.6,1,2.6,1.9c3.6,3.6,7.5,4.5,13.2,4.5
						C226.5,252,230.3,250,230.3,247.8z M230.6,253.5c-2.7,1.3-3.8,1-3.8,3.8c0,1-0.2,2.4-0.2,3.1c0,1,0.2,1.5,1.3,1.5
						c2.9,0,7.4-4.9,7.4-9c0-1.1-0.6-1.6-1.4-1.6C233.2,251.4,232.5,252.7,230.6,253.5z M205.2,213.3c0-5.1,12.1-7.8,12.1-14.1
						c0-1-0.4-2.9-1.1-4.2c4.2,2.3,7.3,6.2,7.3,9.4c0,5.5-5.7,8-5.7,11.5c0,4,6.1,4.6,6.1,9.6c0,4.1-5.8,8.8-5.8,14
						c0,4.1,2.9,7.4,7.3,8c-1.4,0.3-2.7,0.6-4.1,0.6c-8.1,0-16.3-6.6-16.3-14.5c0-3.9,1.7-7.3,4.2-9.8c2.2,1.9,4.5,3.2,5.9,3.2
						c1.3,0,1.8-0.6,1.8-1.6C216.9,222.3,205.2,219.6,205.2,213.3z"/>
				</g>
				<g>
					<path class="st0" d="M158.9,252.7c0.3,2.7,2.9,4.8,5.8,4.5c1-0.1,2-0.4,2.6-0.8c0.6,2.6,2.8,4.2,5.7,3.8
						c2.9-0.4,4.9-2.7,4.6-5.6c-0.1-0.8-0.2-1.3-0.5-1.8c0,0,0.4,0,0.7-0.1c2.9-0.5,4.8-2.9,4.6-5.6c-0.3-2.9-2.9-5-5.6-4.7
						c-1,0.1-2,0.5-2.6,1.1c-0.7-2.4-3-4.5-6-4c-2.8,0.5-4.6,2.8-4.3,5.8c0,0.5,0.1,1,0.4,1.6c0,0-0.5,0.1-0.8,0.1
						C161.1,247.2,158.6,249.6,158.9,252.7z M173.8,249.5c0.2,1.7-1,3.2-2.7,3.4c-1.7,0.2-3.2-1-3.4-2.7c-0.2-1.7,1-3.2,2.7-3.4
						C172.1,246.7,173.7,247.9,173.8,249.5z"/>
				</g>
			</g>
		</g>
	</g>
</g>
</svg>
