<?xml version="1.0" encoding="utf-8"?>
<!-- Generator: Adobe Illustrator 24.3.0, SVG Export Plug-In . SVG Version: 6.00 Build 0)  -->
<svg version="1.1" id="Layer_1" xmlns="http://www.w3.org/2000/svg" xmlns:xlink="http://www.w3.org/1999/xlink" x="0px" y="0px"
	 viewBox="0 0 147.6 88.4" style="enable-background:new 0 0 147.6 88.4;" xml:space="preserve">
<style type="text/css">
	.st0{fill:#EB2227;}
	.st1{font-family:'Chickadee';}
	.st2{font-size:46.1077px;}
	.st3{fill:#282829;}
</style>
<path class="st0" d="M128,4.4c-4.7-1-10.6-0.1-14.9,2.4c-12.6,7.3-14.5,24.8-3.7,32.8c6,4.4,14.5,4.5,20.3-0.9
	c3.1-3,4.7-7.1,4.4-11.2c-0.4-5.5-4.9-10-10.7-10.2c-4.2-0.2-7.6,2.6-8.7,6.1c-1.4,4.6,1.8,8.4,4.2,8.9c-1.1-0.9-2.2-2.7-2.1-4.9
	c0-1.1,0.2-2.5,1.5-4.1c1.1-1.4,2.9-2.2,5.2-2.1c2.2,0.1,4.2,1.3,5.4,3.2c1,1.7,1.3,4.4,0.6,6.8c-1.1,3.4-3.3,5.1-6,6.2
	c-3.1,1.2-7.3,0.7-10.3-1.6c-3.3-2.5-6.4-8.4-4.1-15.1c2.2-6.4,7.7-10,14-10.1c6.9-0.1,12.9,3.9,15.9,10c1.7,3.6,2.4,7.9,1,13.2
	c-1.2,4.5-2.9,6.8-5.2,9.3c-3.6,3.9-8.3,5.7-13.9,6.3c5.8,0.7,13-1.1,17.9-5.4c4.5-3.9,7.5-9.1,8-15c0.6-8-1.9-13.5-6.7-18.4
	C136.7,7.6,132.7,5.4,128,4.4"/>
<text transform="matrix(1.058 0 0 1 82.4554 38.4933)" class="st0 st1 st2">2</text>
<path class="st3" d="M121.9,72.2c-2.2,0-3.6-1.6-3.6-4.3c0-4.2,1.5-5.6,7.1-6.2v8.5C124.6,71.3,123.2,72.2,121.9,72.2 M117.2,75.7
	c3.9,0,6.5-2.1,8.5-4.4h0.2c0.6,2.8,2.3,4.3,6.1,4.3c2.4,0,4.3-1,6.5-2.6l-0.3-0.6c-3,1.3-4.1,0.7-4.1-2.1V58.2
	c0-6.6-3.7-9.4-11.1-9.4c-8.7,0-12.3,2.2-12.3,5.6c0,2.3,1.9,4.1,4.3,4.1c2.8,0,4.3-1.6,4.3-4.2c0-1.4-0.5-2.4-1.6-3.4
	c1-0.6,2.3-1,3.8-1c2.8,0,3.9,1.6,3.9,5.4v5.1c-2.3,0.6-8.7,0.1-12.7,2.2c-2.4,1.3-3.7,3.8-3.7,6C109,72.1,111.5,75.7,117.2,75.7"/>
<path class="st3" d="M102.3,75.9c4.6,0,6.9-2,8.4-6.3l-0.7-0.3c-1.1,2.6-2.3,3.6-4.1,3.6c-2.6,0-3.3-1.5-3.3-4.7V51.4h8v-1.9h-8
	v-9.7l-8.6,2.4v7.2l-5,1v1.1h4.9v16.2C93.8,73.8,97.7,75.9,102.3,75.9"/>
<path class="st3" d="M1.4,76.4h0.7l3.2-3c2.9,1.6,7.3,2.7,10.5,2.7c9.7,0,13.9-6.6,13.9-13.6c0-7.4-6.1-9.9-11.5-11.6
	c-6.8-2.1-10.2-4.3-10.2-8.5c0-4.1,3.3-6.3,6.8-6.3c4.3,0,7.9,3.6,12.1,11.6h0.9v-13h-0.7l-2.7,2.7c-2.3-1.3-5.5-2.4-8.8-2.4
	c-8.2,0-13.8,5-13.8,12.6c0,7.3,6.1,9.8,12.4,11.9c6.6,2.2,10,4.5,10,8.7c0,3.6-2.6,6.8-7.4,6.8c-5.3,0-10.4-5-14.5-13.3H1.4V76.4z"
	/>
<path class="st3" d="M67.7,48.8c-3.1,0-6.2,2-7.9,5.5V49l-8.7,0.5v2.9c0,0.2,0.1,0.5,0.1,0.8v19.6c0,0.2,0,0.4,0,0.6v2.1h8.8V73
	c0-0.1,0-0.2,0-0.3V55.5c1.1-1.9,3.1-3.4,4.4-3.5c-0.2,0.7-0.5,1.7-0.5,2.6c0,2.3,1.8,4.4,4.8,4.4c2.6,0,4.5-2,4.5-5
	S71.3,48.8,67.7,48.8z"/>
<path class="st3" d="M41.9,75.9c4.6,0,6.9-2,8.4-6.3l-0.7-0.3c-1.1,2.6-2.3,3.6-4.1,3.6c-2.6,0-3.3-1.5-3.3-4.7V51.4h8v-1.9h-8v-9.7
	l-8.6,2.4v7.2l-5,1v1.1h4.9v16.2C33.3,73.8,37.2,75.9,41.9,75.9"/>
<path class="st3" d="M75.9,72.2c-2.2,0-3.6-1.6-3.6-4.3c0-4.2,1.5-5.6,7.1-6.2v8.5C78.7,71.3,77.3,72.2,75.9,72.2 M71.3,75.7
	c3.9,0,6.5-2.1,8.5-4.4h0.2c0.6,2.8,2.3,4.3,6.1,4.3c2.4,0,4.3-1,6.5-2.6l-0.3-0.6c-3,1.3-4.1,0.7-4.1-2.1V58.2
	c0-6.6-3.7-9.4-11.1-9.4c-8.7,0-12.3,2.2-12.3,5.6c0,2.3,1.9,4.1,4.3,4.1c2.8,0,4.3-1.6,4.3-4.2c0-1.4-0.5-2.4-1.6-3.4
	c1-0.6,2.3-1,3.8-1c2.8,0,3.9,1.6,3.9,5.4v5.1c-2.3,0.6-8.7,0.1-12.7,2.2c-2.4,1.3-3.7,3.8-3.7,6C63.1,72.1,65.6,75.7,71.3,75.7"/>
</svg>
